<mxfile host="app.diagrams.net" modified="2023-08-13T17:07:27.906Z" agent="Mozilla/5.0 (Windows NT 10.0; Win64; x64) AppleWebKit/537.36 (KHTML, like Gecko) Chrome/115.0.0.0 Safari/537.36" version="21.6.6" etag="O9ZFSy3VXkOh-5LGuV4p" type="device">
  <diagram id="EDv0z5u0yVXq4tOw3fjM" name="Page-1">
    <mxGraphModel dx="1050" dy="549" grid="1" gridSize="10" guides="1" tooltips="1" connect="1" arrows="1" fold="1" page="1" pageScale="1" pageWidth="850" pageHeight="1100" math="0" shadow="0">
      <root>
        <mxCell id="0" />
        <mxCell id="1" parent="0" />
        <mxCell id="nj3Y115-zf2xpUHcBy3k-1" value="" style="rounded=0;whiteSpace=wrap;html=1;fillColor=#000000;" vertex="1" parent="1">
          <mxGeometry width="850" height="350" as="geometry" />
        </mxCell>
        <mxCell id="nj3Y115-zf2xpUHcBy3k-2" value="" style="rounded=0;whiteSpace=wrap;html=1;" vertex="1" parent="1">
          <mxGeometry x="550" y="190" width="180" height="30" as="geometry" />
        </mxCell>
        <mxCell id="nj3Y115-zf2xpUHcBy3k-3" value="" style="rounded=0;whiteSpace=wrap;html=1;" vertex="1" parent="1">
          <mxGeometry x="550" y="240" width="180" height="30" as="geometry" />
        </mxCell>
        <mxCell id="nj3Y115-zf2xpUHcBy3k-4" value="username&lt;br&gt;" style="text;html=1;strokeColor=none;fillColor=none;align=center;verticalAlign=middle;whiteSpace=wrap;rounded=0;fontColor=#FFFFFF;" vertex="1" parent="1">
          <mxGeometry x="480" y="190" width="60" height="30" as="geometry" />
        </mxCell>
        <mxCell id="nj3Y115-zf2xpUHcBy3k-5" value="Password" style="text;html=1;strokeColor=none;fillColor=none;align=center;verticalAlign=middle;whiteSpace=wrap;rounded=0;fontColor=#FFFFFF;" vertex="1" parent="1">
          <mxGeometry x="480" y="240" width="60" height="30" as="geometry" />
        </mxCell>
        <mxCell id="nj3Y115-zf2xpUHcBy3k-6" style="edgeStyle=orthogonalEdgeStyle;rounded=0;orthogonalLoop=1;jettySize=auto;html=1;exitX=0.25;exitY=1;exitDx=0;exitDy=0;" edge="1" parent="1" source="nj3Y115-zf2xpUHcBy3k-4" target="nj3Y115-zf2xpUHcBy3k-4">
          <mxGeometry relative="1" as="geometry" />
        </mxCell>
        <mxCell id="nj3Y115-zf2xpUHcBy3k-7" value="Forgot password" style="text;html=1;strokeColor=none;fillColor=none;align=center;verticalAlign=middle;whiteSpace=wrap;rounded=0;fontColor=#0BE0E0;" vertex="1" parent="1">
          <mxGeometry x="620" y="280" width="120" height="30" as="geometry" />
        </mxCell>
        <mxCell id="nj3Y115-zf2xpUHcBy3k-8" value="Sign in" style="rounded=1;whiteSpace=wrap;html=1;" vertex="1" parent="1">
          <mxGeometry x="780" y="240" width="50" height="30" as="geometry" />
        </mxCell>
        <mxCell id="nj3Y115-zf2xpUHcBy3k-9" value="" style="shape=image;verticalLabelPosition=bottom;verticalAlign=top;imageAspect=0;aspect=fixed;image=data:image/jpeg,/9j/4AAQSkZJRgABAQEAYABgAAD/2wBDAAoHBwkHBgoJCAkLCwoMDxkQDw4ODx4WFxIZJCAmJSMgIyIoLTkwKCo2KyIjMkQyNjs9QEBAJjBGS0U+Sjk/QD3/2wBDAQsLCw8NDx0QEB09KSMpPT09PT09PT09PT09PT09PT09PT09PT09PT09PT09PT09PT09PT09PT09PT09PT09PT3/wAARCAQABAADASIAAhEBAxEB/8QAHwAAAQUBAQEBAQEAAAAAAAAAAAECAwQFBgcICQoL/8QAtRAAAgEDAwIEAwUFBAQAAAF9AQIDAAQRBRIhMUEGE1FhByJxFDKBkaEII0KxwRVS0fAkM2JyggkKFhcYGRolJicoKSo0NTY3ODk6Q0RFRkdISUpTVFVWV1hZWmNkZWZnaGlqc3R1dnd4eXqDhIWGh4iJipKTlJWWl5iZmqKjpKWmp6ipqrKztLW2t7i5usLDxMXGx8jJytLT1NXW19jZ2uHi4+Tl5ufo6erx8vP09fb3+Pn6/8QAHwEAAwEBAQEBAQEBAQAAAAAAAAECAwQFBgcICQoL/8QAtREAAgECBAQDBAcFBAQAAQJ3AAECAxEEBSExBhJBUQdhcRMiMoEIFEKRobHBCSMzUvAVYnLRChYkNOEl8RcYGRomJygpKjU2Nzg5OkNERUZHSElKU1RVVldYWVpjZGVmZ2hpanN0dXZ3eHl6goOEhYaHiImKkpOUlZaXmJmaoqOkpaanqKmqsrO0tba3uLm6wsPExcbHyMnK0tPU1dbX2Nna4uPk5ebn6Onq8vP09fb3+Pn6/9oADAMBAAIRAxEAPwD2aiiigAooooAKSijNABRRRQAUUUUAFFFFABRRRQIKKKM0AFFFFAwooooAKKKKBBRRRQAUUUUDCiiigAooooAKKKKACiiigQUUUUxhRRRSEFFFGaBhRRRQAUUUUAFFFFABRRRQAUUUUAFFFFABRRRQAUUZooAKKKWgBKKKKACiiigAooooAKKKKACiiigAooooAKKKKAEopaKAEpaKKACkpaKACiiigAooooAKKKKACiijNABRRRQAUUUtACUUtJQAUUZooAKKKKBBRRRQMKKKKACiijNAgooopjCiiigQUUUUAFFFGaQwooooAKKKKACiiigAooooAKKKKAEopaKAEooooASiikoELRSUUASUUUUDCkoooEFJmiigAozRRQAZozRRQAZpc0lFABmjNFFAC5opKKAFoozRQAUUUZoAKKKTNAC0UUUAFFGaTNAC0UlFAC0UlFAC5pM0UUAGaM0UUAGaM0UUAGaM0UUALRSUUALmikooAWjNJRQAtFJRQAZooooAM0ZoooAM0tJRQAtFJRQAuaTNFFAC5ozSUUALmkzRRQAZozRRQAZozRRQAZozRRQAZpaSigBc0UlFABmjNFFABRmiigAooooAKM0UUAGaM0UUAGaM0UUAFFFFABmlpKKAFopKKAFopKKAFpM0UUAGaM0UUAGaM0UUAGaM0UUALmikooAWjNJRQAZozRRQAUUUUAFLSUUALRSUUALRSUUALSZoooAKKKKACiiigAooooAKKKKACkoooAKSlooASilooAdS0lLQMSkNLSGgQUUUUAFFFFABRRRQAUUUUAFFFFABRRRQAUUUUAFFFFABRRRQAUUUUAFFFFABRRRQAUUUUAFFFFMAooopAFFFFABRRRTAKKKKQBRRRQAUUUUAFFFFABRRRQAUUUUAFFFFABRRRQAUUUUAFFFFABRRRQAUUUUAFFFFABRRRQAUUUUAFFFFABRRRQAUUUUAFFFFABRRRQAUUUUAFFFFABRRRQAUUUUAFFFFABRRRQAUUUUAFFFFABRRRQAUUUUAFFFFABRRRQAUUUUwCiiigAooopAFFFFABRRRQAUUUUAFFFFABRRRQAUUUUAFFFFABSUtJQAUUUUAFLSCloAWlpKKBhSGlpDQIKKKKACikpaACiiigAooooAKKKKACiiigAooooAKKKKACiiigAooooAKKKKACiiigAooooAKKKKYBRRRQAUUUUgCiiimAUUUUAFFFFIAooooAKKKKACiiigAooooAKKKKACiiigAooooAKKKKACiiigAooooAKKKKACiiigAooooAKKKKACiiigAooooAKKKKACiiigAooooAKKKKACiiigAooooAKKKKACiiigAooooAKKKKACiiimAUUUUAFFFFIAooopgFFFFABRRRQAUUUUgCiiigAooooAKKKKACiiigAooooAKKKKACiiigApKWkoAKKKWgAooooAWiiigYUlKaSgQUUUUAFFFFABRRRQAUUUUAFFFFABRRRQAUUUUAFFFFABRRRQAUUUUAFFFFABRRRQAUUUUAFFFFMAooopAFFFFABRRRTAKKKKACiiigAooopAFFFFABRRRQAUUUUAFFFFABRRRQAUUUUAFFFFABRRRQAUUUUAFFFFABRRRQAUUUUAFFFFABRRRQAUUUUAFFFFABRRRQAUUUUAFFFFABRRRQAUUUUAFFFFABRRRQAUUUUAFFFFABRRRQAUUUUAFFFFABRRRQAUUUUAFFFFMAooopAFFFFABRRRQAUUUUAFFFFABRRRQAUUUUAFFFFACUUUUAFFFFAC0UUUALQaKDQMDSUppKBBRRRQAUUUUAFFFFABRRRQAUUUUAFFFLQAlFFFABRRRQAUUUUAFFFFABRRRQAUUUUAFFFFABRRRQAUUUUAFFFFMAooooAKKKKACiiigAooopAFFFFABRRRQAUUUUwCiiikAUUUUAFFFFABRRRQAUUUUAFFFFABRRRQAUUUUAFFFFMAooopAFFFFABRRRTAKKKKQBRRRQAUUUUAFFFFABRRRQAUUUUAFFFFABRRRQAUUUUAFFFFABRRRQAUUUUAFFFFABRRRQAUUUUAFFFFMAooopAFFFFABRRRQAUUUUAFFFFABRRRQAUUUUAFFFFACUUtFACUUUtABRRRQAtBooNAwNJSmkoEFFFFABRRRTAKKKKACiiigAooopAFLSUUAFFFFABRRRQAUUUUAFFFFABRRRQAUUUUAFFFFABRRRQAUUUUAFFFFMAooopAFFFFMAooooAKKKKQBRRRQAUUUUAFFFFMAooopAFFFFABRRRQAUUUUAFFFFABRRRQAUUUUAFFFFABRRRQAUUUUAFFFFMAooopAFFFFMAooopAFFFFABRRRQAUUUUAFFFFABRRRQAUUUUAFFFFABRRRQAUUUUAFFFFABRRRQAUUUUAFFFFABRRRQAUUUUAFFFFABRRS0AJRS0lABRRRQAUUUUAFFFFABRRRQAUUUUAFFJS0AFFFFAC0Gig0DCkpTSUCCiiigAooopgFFFFABRRRSAKKKKACiiigAooooAKKKKACiiigAooooAKKKKACiiimAUUUUgCiiigAooooAKKKKYBRRRSAKKKKACiiigAooooAKKKKACiiigAooooAKKKKACiiigAooooAKKKKACiiigAooooAKKKKACiiimAUUUUgCiiigAooooAKKKKACiiimAUUUUgCiiigAooopgFFFFABRRRQAUUUUgCiiimAUUUUgCiiigAooooAKKKKACiiigAooooAKKKKACiiigAooooAKKKKAClpKKAFpKWkoAKKKKACiiigAooooAKKKKACiiigAooooAKKKKAFooooGFJS0lAgooopgFFFFABRRRQAUUUUgCiiigAooooAKKKKACiiigAooooAKKKKACiiigAooooAKKKKACiiigAooooAKKKKYBRRRQAUUUUgCiiimAUUUUgCiiigAooooAKKKKACiiigAooooAKKKKACiiigAooooAKKKKACiiigAooopgFFFFIAooooAKKKKACiiigAooooAKKKKACiiigAooopgFFFFABRRRQAUUUUAFFFFIAooooAKKKKACiiigAooooAKKKKACiiigAooooAKKKKACiiigAooooAKKKKACiiigAooooAKKKKACiiigAooooAKKKKACiiigAoooFAC0GiigYUhpaQ0CCiiigAooopgFFFFABRRRQAUUUUgCiiimAUUUUAFFFFIAooooAKKKKACiiigAooooAKKKKACiiigAooooAKKKKYBSZoooAM0tJRQAtFJRSAWiikoAWiiigAooooAKKKKACiiigAooooAKKKKACiiigAooxRQAUUUUAFFFFABRS0UAFJS0UAJRS0lABRRRQAUUUUAFFFFABRS0lABRRRQAUUUUAFFLRTASiloxSASiiimAUUUUgCiiigAooooAKKKKACiiigAooooAKKKKACiiigAooooAKKKKACiiigAooooAKKKKACiiigAooopgFFFFIAooooASlpKKAFooooAKKKKAFoooNAwoopDQIKKKKACiiimAUUUUAFFFFABRRRSAKKKKACiiigAooooAKKKKYBRRRSAKKKKACiiigAooooAKKKKACig0UAFFFIaYBSUUUAFUdW1vTtCtPtGq3sNtF23nlvZQOW/AVzPjr4iWvhSI2loFuNVdcrET8sIPRnx+g/lXhup6neaxfPe6lcvcXMnV37ew7Aew4rrw2DlW1eiInUUT1nVfjbYQsU0rTp7kjjzJmEan3AGT+eK5yX406+zMYrWxRf4RsY4/WvPjSEV61PAUYrVXMHVkzu/wDhcniX+7Zj6Rf/AF6X/hcfiX0s/wDv1XB4pK1+o0P5Q55dzvf+FyeJP7tn/wB+qX/hcniL+5a/98VwVJT+oUP5Q55dzvv+FyeIj/Daj/tnTf8AhcXiT/p2H/bMVwdFL6hQ7Bzy7nd/8Li8S+tp/wB+aP8AhcXib1tP+/NcJRR9Qodg55dzvP8AhcXiT0tP+/VB+MXiQ9Pso/7ZiuDoo+o0OwuZ9zuj8YPE3961/CIUh+L3ijgiW1A9PJFcPQaX1Gj/AChzPud2PjH4lHUWh/7ZUf8AC4/Evpaf9+q4OlNP6jQ/lHzy7nd/8Lj8S+ln/wB+qP8AhcXiT/p1/wC/Yrg6KPqND+UOeXc73/hcfiP0tv8Av2KX/hcniL+7bf8AfA/wrgaWj6hQ7Bzy7ne/8Lk8Q/3bf/vgf4U4fGTxB3S3P/AR/hXAZNJk0LAUOwuaXc9A/wCFy69/zzt/++R/hR/wuTX/APnnb/8AfI/wrz+lo+oUOw+eXc74/GTxB/ctx/wAf4Uf8Lk8Qf3bf/vgf4VwNFH1Ch2Fzy7nf/8AC5PEH9y3/wC+R/hQPjLr/wDzzt/++R/hXn9LR9Qodh88u53x+MniDtHb/wDfA/wo/wCFyeIf7lv/AN8D/CuAoNL6hQ7Bzy7nff8AC5fEP9y1/wC+KP8Ahc3iL/nnaf8AfuuAzRmn9Qodg55dzvj8ZfEh6JaD/tlR/wALk8R/3LP/AL9f/XrgaOlL6jQXQOeXc7z/AIXH4lzx9jx6eTTv+FyeJP7tmf8AtlXBUUfUaH8oc8u53p+MniT+7Zj/ALZUn/C5PEvpZ/8Afr/69cFRR9Qodg55dzvD8ZPEvYWY/wC2VNPxi8Tno1mP+2NcLRT+oUOwc8u53B+MXijs9p/35FN/4XD4p/562n/fgVxFGaX1Gj/KPnZ3cPxl8TJKrSrZyIDyvlbc/jmur0b432Fwyx6xp8tnk482JvMT6kcEfhmvHCAcYGDjnmmFayq5fTa0Vhqo0fVmnapZaxZpdafcx3EDdGjbP4H0PsauV8saF4g1Pw1ei60q5aFsjeh5SQejL0P8x2r3jwP4+s/F9t5bBbfUYxmW3J6/7S+o/UV5OIwkqOu6NlNM6+kpaK5ChKKKKYBRRRSAKKKKACiiigAooooAKKKKYBRRRQAUUUUgCiiigAooopgFFFFABRRRSAKKKKACiiigAoopKYC0UlFIBaSiigAooooAWikpaACiigUAKKDRRQMKQ0tJQIKKKKYBRRRQAUUUUgCikpaACiiigAoopKYC0UUUgCiiigAooooAKKKSgBaKKKACiiigAooooAKKKKACiiimAUhpaSgBK5D4heNB4S0pUtSr6ndZWBTz5Y6GQj+Q7n6Guud1jRndgqqMsSeAB1P5V80eK9dk8SeJLvUHyEkbbCp/hjXhR+X6k104Sh7WeuyIqT5VoZM0stxO808jyyyMWd3OWZj1JPc00Dp6k4AHJJ9AKAK9i+FXgeO3tItf1OINczDdaRuM+Uh6Pj1br7D6mvYrVo0IX+5HPFObMDwz8IdR1WOO51qVtOt2AYQhczsPcHhPxyfUCu+tPhX4UtIlV9Pa4cDl55nYn8AQPyArsaD9a8apjK1R3vb0OhU4o5n/AIVx4Ux/yBbb/wAe/wAaafhp4TPXRofwdx/WuporL21T+Z/eVyo5Q/DHwkf+YPH/AN/pP/iqT/hWHhL/AKA6/wDf+T/4quspKft6v8z+9hyx7HKH4YeEv+gMn/f6T/4qj/hV/hL/AKA6/wDf+X/4quroo9vV/mf3sOWPY5M/C3wif+YOv/gRL/8AFUD4W+ER/wAwdf8AwIl/+KrrKKPb1f5n97Dlj2OT/wCFXeEf+gQv/f8Al/8AiqafhX4RP/MKP/gVN/8AF111FHt6v8z+8OSPY5D/AIVV4Q/6BTf+Bc3/AMXTh8LPCP8A0CT/AOBU3/xddbRR7ar/ADP7w5V2OT/4Vb4S/wCgT/5My/8AxVJ/wq3wj/0Cf/JmX/4qutxRij29X+Z/exckexyf/CrfCP8A0CB/4ES//FUf8Kt8I/8AQIH/AIES/wDxVdZRR7er/M/vY+SPY5P/AIVb4R/6BA/8CJf/AIqk/wCFWeEf+gT/AOTM3/xddbRij29X+Z/ew5I9jkv+FWeEP+gQP/AiX/4qj/hVnhH/AKBA/wDAiX/4qutoo9vV/mf3sOWPY5P/AIVb4R/6A6/+BEv/AMVSf8Kr8If9Aj/yZl/+KrrcUYo9vV/mf3sOVdjkv+FV+EP+gR/5Mzf/ABdL/wAKs8Ij/mED/wACJf8A4qusxRij29X+Z/ew5Y9jk/8AhV3hH/oEL/3/AJf/AIqj/hV3hL/oEJ/3/l/+KrrMUYo9vV/mf3sOWPY5T/hV/hH/AKA6f9/5P/iqT/hVvhH/AKBC/wDgRL/8VXWYoo9vV/mf3sOWPY5P/hVvhH/oDr/3/l/+KpD8LPCJ/wCYQP8AwIl/+KrraKPbVP5n94cq7HJf8Kr8If8AQI/8mZv/AIqk/wCFVeEP+gR/5Mzf/F112KKPbVP5n94csexyf/CrPCOP+QQP/AiX/wCKo/4VZ4R/6BA/8CJf/iq6ylo9tV/mf3hyR7HJ/wDCr/CP/QHT/v8Ayf8AxVH/AAq/wj/0B0/7/wAn/wAVXV0Ue3q/zP72HLHscn/wq3wj/wBAdf8AwIl/+KpP+FWeEP8AoED/AMCJf/iq62ij29X+Z/ew5Y9jk/8AhVvhH/oDr/3/AJf/AIqmn4VeET/zCcfS5lH/ALNXXUUe3q/zP72HJHscFffBzw1cr/owvLNvWOcsPxD7q4PxJ8JtX0SFrmxkGp2yDLeWm2VffZk5H+6c+1e80VtTx1aHW68yXTiz5K61NaXVxp95Dd2UrQ3ELBkdTgg/1HqK9d+J/wAPUuoJ9e0iPbcxgvdQKOJR3cDsw6n1HPXr44DXsUq0MRC6+aMGnFn0Z4C8ZReLtGEjbUvoMJcxA9G/vD/ZPb8R2rqq+Z/BXiB/DPiq0vNxFvIwhuBngoxxn8Dg/hX0sjB1BByCODXi4qj7KemzOiEuZCmilNJXMUFFFFMAooopAFFFFABRRRQAUUUUwCiikpAFLSUUALRRRQAUUUUwCiiigAooopAFFFFABRRRQAUlLRQAlFLRQAlFFFABRRRQAUopKBQAtAopaACg0UUDCkNLSGgQUUUUAFFFFABRiiigAooooAKKKKACiiigAooooAKKKKACiiigApKWigBKWkpaACiiigAooooAKKKKACiiigAooooA5b4kagdN8DalIj7ZJlWBffewDD/vndXzuRXt3xpk2+ErRB/FeqfyR68SNe1l0UqTfdnNWfvWN7wRoSeIvFtjYzoXttxlnHqijOD7E7VP1r6RUAAAYAAwAK8X+CduJPEeoznrFaBB/wACfJ/9AFe01x4+bdW3Y0pKyuLRSUVxGotFJRQAuaTNFFIAzS5pKKAFzSZoooAM0ZoopgGaM0UUAGaXNJRQAtFJS0gCiiigAooooAKKKSgBaKSigBaKSigBaKSigBaKSigBaKSigBc0UlFAC0UlFAC0UlFAC0UlFAC0UlLQAhr5u8faEvh7xhe2sK7bdyJoR2CtzgfQ5H4V9I1418b7cLq+lXAAzJA6E/7rZ/8AZq7cvny1bdGZ1VoeYFdyketfSfgLUzq/grTLqQ5k8ry3Pqynaf1FfNwHFe6fBmYyeCHjP/LG7kUewOG/9mrszGK5E/MzovVo780lL2pK8Y6AooooAKKKKACiiigAooooAKKKKACiiigAooooAKKKKACiiigAooopgFFFFIAooooAKKKKACiiigAooooAKSlooASiiigApaSloAKWkpaACiiloGJSGlpKBBRRRTAKKKKQBRRRQAUUUUAFFFFABRRRQAUUUUAFFFFABRRRQAUUUUAFFFFABRRRQAUUUUAFFFFABRRRQAUtJS0AeZ/GxsaDpy+t0T+SH/GvGTXsvxt/5A2mf9fLf+g14zXv5ev3HzOWr8R6j8Dh/wATPWT/ANMYf5vXsIryD4Hf8f2t/wDXKH+b16+K8vHfxmb0vhQUUUVyFhRRRTAKKKKACiiigAoopKAFpKa7rGjO7BUUZZicAAdT+VeVX3x1gju5EsdEaeAHCSy3OwuP93acfnV06U6jtBXE2luesUV5B/wvl+/h1Sfa+/8AtdH/AAvl/wDoXV/8Dv8A7XW31Ov/ACi50ev0V5D/AML6bv4dH4X3/wBro/4Xyf8AoXf/ACe/+10fUq/8v5Bzo9foryH/AIXwf+hd/wDJ7/7XSf8AC+D/ANC6P/A7/wC10fUq/wDL+Qc6PX6K8h/4Xwf+he/8nv8A7XSf8L4P/Qu/+T3/ANro+pV/5fyDnR6/RXkH/C+D/wBC6P8AwO/+10f8L5P/AELv/k9/9ro+p1/5fyDnR6/RXkH/AAvk/wDQuj/wO/8AtdH/AAvg/wDQu/8Ak9/9ro+p1/5fyDnR69RXkP8Awvk/9C9/5Pf/AGuj/hfJ/wChe/8AJ7/7XR9Sr/y/kHMj16lryD/hfJ/6F3/ye/8AtdH/AAvo/wDQu/8Ak9/9rpfU638v5Bzo9foryD/hfJ/6F7/ye/8AtdH/AAvo/wDQuj/wO/8AtdP6lW/l/IOaJ6/RXkH/AAvk/wDQuj/wO/8AtdIfjyx6eHR+N9/9ro+p1/5fyDmR6/RXjx+O83bQIx9bs/8AxFKPjvL38Pp+F4R/7JR9Srfyhzo9gpa8os/jnbyXKre6JJBCT80kVz5hH/ASq5/OvTrG+t9Ssobu0lWWCZQyOOhBrGpRnT+NWGmnsWKKWkrMYUUUUAFFFFMAooopAHevJPjp/rNCPfFx/wC069bFeR/HT/W6H/uz/wA466sF/HiRU+FnlIr234Jn/ilL/wBr9v8A0XHXiQr2v4Jf8itqH/X+3/ouOvTzFfufmY0fiPSKSlpK8I6QooooAKKKKACiiigAooopgFFFFABRRRQAUUUUgCiiigAooooAKKKKACiiigAooooAKKKKACiiimAUUUUgCiikoAKKKKACiiigBaKKKAFooooGFJS0hoEFFFFMBKKWikAUUUUAFFFJQAtFFFABRRRQAUUUUwCiiigAopKKQBS0lFAC0UlGaAFooooAKKKKACiiimAUUUUgCiiigDzT43f8gHTf+vo/+gmvGK9o+N3/ACLunf8AX3/7I1eL5r38v/gfNnLV+I9V+Bw/0rWz/sQfzkr16vIfgb/x865/uQfzkr14V5eO/jv+uhvS+FCUUUVyFhRRRTAKKKKQBRRRTASilpKAMvxPFLN4W1aK3BMr2cqoB1J2HivloKa+usVwmt/CXRNXvZLqJ57OWQlmWLBQk9SFI4/Cu3BYmNG6l1M5pvY8BFFe0t8DbHtq9yP+2SmgfA2xHXWLo/8AbJRXofX6Pf8ABmfLLseLZ96Wvav+FHab/wBBa8/74T/Cl/4Ubpn/AEFr7/vlP8KPr9Hv+Ackux4pn3or2k/A3Tu2r3g/4An+FH/CjdP/AOgxef8AftP8KP7Qod2HJLseL80c17T/AMKN07/oLXn/AHwn+FJ/wo3Tv+gtef8AfCf4Uf2hQ7v7g5JdjxfmjmvaP+FG6d/0Frv/AL9pR/wo3T/+gvd/9+0/wo+v0e7+4XJLseLZozXtH/CjbD/oL3X/AH6Wk/4UZY/9Bi6/79JR9fo9/wAB8kux4vmkr2n/AIUXYf8AQYuv+/S0v/CjNP8A+gvef9+0/wAKHj6Pf8GPll2PFc0Zr2v/AIUZpv8A0Frz/vhP8KX/AIUbpv8A0Frz/vhP8Kn69R7/AIByy7HilFe0n4Gad21e8H/bND/Sk/4UXYf9Bi6/79LT+v0e/wCDDll2PF6K9n/4UXY/9Bi5/wC/K0h+Bdn/ANBmf/vwv+NH1+j3/Bi5ZdjxrNANeyf8KLtf+g3P/wCA6/40f8KLtf8AoNz/APgOv+NH1+j3/AOSXY8dFfQXwljlj8AWZm3APJI8YP8AdLnH4d/xrM074K6JazrLfXV3ehefKYhEb64GT9M16JFEkESxxKqRqAqqowAB0AFcWMxUa0VGJpTg1qySkoorzzQKKKKYBRRRQAUUUUgDvXkPx0OLnRP9yb+aV693ryH46j9/oZ/2Z/5x11YL+NEmp8LPKga9s+CX/Irah/1/t/6LjrxJa9t+CX/Iq35/6f2/9Fx16eY/wfmY0fiPSKSlpK8I6AooopgFFFFABRRRQAUUUUAFFFFABRRRQAUUUUAFFFFIAooooAKKKKACiikoAWiiigAooooAKKKKYBRRRQAlFFFIAooooAKKKKAFooooAWiiigYUhpaQ0CCiiimAUUUUgCiiigApKWigBKKWigBKKKWgAooopgFJS0UgEopaKAEpaKKAEopaKAEpaKKACiiigAooooAKKKKAClpKKAPNPjecaBpo9bo/+gmvF69k+OH/ACBtL/6+GP8A47Xjde9l/wDA+ZzVfiPVvgaf9K1z/cg/nJXr1eQ/A0f6Vrh/2IP5yV69XmY7+O/66G1L4UJRRRXIWFFFFMAooopAFFFFABRRRQAUtJRQAtFFFAC0UlFAxaKSigBaKSigBaKSigBaKSjNAC0UlFAC0UlFAC0UlFAC0UlFAC0lFFAgpKKKACiiigAooopgFFFFABRRRQAV5F8d/wDWaD9Lj/2nXroryL47f6zQf924/wDaddOC/jRJn8LPJ1r2/wCCP/Ip3/8A2EG/9Fx14gte3/BL/kU7/wD7CDf+i469PMf4PzMaXxHo9JS0leEdAUUUUwCiiigAooopAJRS0UwCiiigAooopAFFFFABRRRQAUUUUAFFFFACUUtFABRRRQAlFLSUALRRRQAUUUUAJRS0UAJRRRQAUUUUAApaQUtAC0UUUDCiiigQlFFFABRRRTAKKKKQBRRRQAUUUUAFFFFMAooopAFFFFMAooooAKKKKACiiigAooooAKKKKACiiikAUUUUAFFFFAHl/wAcP+QRpX/Xw/8A6CK8br2X44f8gfS/+vh//Qa8ar3sv/gL1ZzVfiPWPgb/AMfOuf7kH/tSvXa8i+Bn+v1z/dg/9qV66K8vHfxn8vyNqXwiUUUVylhRRRTAKKKKQBRRRQAUUUUAFFFFABRRRQAtFJRQAUUUUAFGaKKADNLmkooAWikooAWikooAWikooAWikooAWikooAWkoooAKKKKACiiigAooooAKKKKACiiigAryH47f6/Q/wDdn/nHXrwryH47D99oR/2Z/wCcddWC/jRJn8LPKFr2/wCCP/IpX3/YQb/0VHXiC17d8Ej/AMUnf/8AYQb/ANFx16mY/wAL5mNL4j0ikpaSvBOgKKKKACiiimAUUUUgCiiigAooooAKKKKACiiigAooooAKKKKACiiigAooooAKKKKYBRRRSAKKKKYBRRRQAUUUUgCiiigBKKKKAFoFFFAC0UUGgYUlLSUCCiiigAooopgFFFFABRRRSAKKKKACiiimAUUUUAFFFFABRRRQAUUUUAFFFFABRRRQAUUUUAFFFFABRRRSAKKKKAPMPjgf+JLpf/Xw3/oNeNV7H8cf+QRpX/Xw/wD6CK8cr3cB/BXqzmq/EesfAz/X65/uwf8AtSvXRXkPwMP+ka5/u2/85K9erzMd/Hf9dDal8KEooNFcpYUUUUwCikopALRRRQAUUUUAFFFFABRRRQAUUUUAFFFFABRRRQAUUUUAFFFFABRRRQAUUUUAFFFFABRRRQAUUUUAFFFFABRRRQAUUUUAFFFFMAooopAFeR/Hb7+hH2uP/adeud68k+Ow50H6XH/tKurBfx4kz+Fnkq17d8Ef+RUv/wDr/b/0XHXiS17b8Ef+RUv/APsIN/6Ljr1Mx/g/MxpfEekUlLSV4J0BRRRQAUUUUAFFFFABRRRTAKKKKACiiikAUUUUAFFFFABRRRQAUUUUAFFFFMAooopAFFFFABRRRQAUUUUwCiiikAUUlFABRRS0AFAooFMBaDRQaQwNJS0lAgooooAKKKKACiiigAooooAKKKKACiiigAooooAKKKKACiiigAooooAKKKKYBRRRQAUUUUAJS0UUAFFFFIAooooA8u+OP/IJ0r/ru/8A6CK8cFeyfHH/AJBOlf8AXd//AEEV42K93AfwV6s5qvxHq/wN/wCPnXP9y3/nJXr1eRfAz/X65/u2/wDOSvXRXmY7+O/66G1L4UIaKDRXKWFFFJTAKKKKQBS0UUAFFLRQAlFLRQAlFLRQAlLiiigBKKWigBKMUtFABikpaKAExRS0UAJiilooASilooASilooASilooASilooASilooASloooAKKKKAEopaSgApaQUtACV5J8deuhfS4/9pV63Xknx0+9of0n/wDaddWC/jxIqfCzyYV7b8Ef+RV1D/r/AG/9Fx14kK9s+CP/ACK+oD/p/Y/+Q469XMv4PzMaXxHpNJS0leAdIUUUUAFFFFABRRRQAUUUUAFFFFMAooopAFFFFABRRRQAUUUUAFFFFABRRRTAKKKKQBRRRQAUUUUwCiiikAUlLSUAFFFFABS0lLQAUUUUALRRRQMKSlpDQIKKKKACiiigAooooAKKKKACiiimAUUUUAFFFFABRRRSAKKKKACiiimAUUUUAFFFFABRRRSAKKKKACiiigAooooA8v8Ajj/yCNK/67v/AOgivG+9ex/HE/8AEo0r/ru//oIrxwV72X/wV6nNV+I9X+Bv/Hzrn+5b/wA5K9eryL4Gj99rh/2bcf8AoyvXa8vG/wAd/wBdDal8KA0lLSVylgaSlpKYCUuD6V4n8U/Gmqr4ol0rTr2e0t7MKGNvIUMjlQxyQQeM4A9q4YeJ9fT7uuaoPpeSD+tdUMFOUVLuQ5pOx9Tc0V8snxZ4j/6D+r/+B0v+NJ/wlniT/oYNX/8AA2X/ABpvA1BqaPqiivlf/hLPEn/Qwav/AOBsv+NH/CW+Jf8AoYNX/wDA2T/Gl9SqBzo+qKK+V/8AhLfEv/Qwav8A+Bsn+NJ/wlniX/oYNX/8DZP8aPqNUOdH1TRXyt/wlniX/oYNX/8AA2T/ABo/4SzxJ/0MGr/+Bsv+NH1Kr2Hzo+qaM18rf8JZ4l/6GDV//A2X/GlHivxL/wBB/V//AANl/wAaf1Gr2DnR9UUV8r/8JZ4m/wChg1f/AMDZP8aP+Er8Tf8AQwav/wCBsn+NH1Gr2Fzo+qKK+V/+Es8Tf9DBq3/gbJ/jSf8ACV+Jv+hg1f8A8DZP8aPqNXsHOj6por5W/wCEr8S/9DBq/wD4Gy/40f8ACV+Jf+hg1j/wNl/xpfUavYfOj6pzRXyt/wAJX4l/6D+r/wDgbL/jR/wlniX/AKGDV/8AwNl/xo+pVQ50fVOaM18rf8JZ4l/6GDV//A2X/Gj/AISvxL/0MGr/APgbL/jR9Sqhzo+qaK+Vv+Er8S/9DBq//gbL/jR/wlfiX/oYNX/8DZf8aPqVXsHOj6por5W/4SzxN/0MGr/+Bsn+NH/CW+Jf+hg1f/wNk/xo+pVewc6PqnNGa+Vv+Es8S/8AQwav/wCBsn+NH/CW+Jf+hg1f/wADZP8AGj6lVDnR9U0V8rf8JZ4l/wChg1f/AMDZP8aP+Et8S/8AQwav/wCBsn+NH1Kr2DnR9U0V8rf8Jb4l/wChg1f/AMDZP8aX/hLfEv8A0MGr/wDgZJ/jR9Sqi50fVFFfK/8AwlviX/oP6v8A+Bkn+NJ/wlvib/oYNW/8DJP8af1GqHOj6por5X/4S3xL/wBB/V//AANk/wAaP+Es8S/9B/V//A2X/Gj6jVDnR9T0V8sjxZ4j/wCg/q//AIGy/wCNPHi3xJ/0H9W/8DJP8aawFQTqI+oxS181ab8RfFOmTrIurT3C5G6O5Pmhh6c5I/Ag19CaBq0WvaHZ6lCNq3MYfbnO09x+ByKxrYedGzl1KjJM0K8l+On/ADAv+3gf+i69aryX46DjQ/8At4/9p1WC/jxJqfCzyUV7V8EP+Rd1L/r9/wDaaV4uBXtHwR48O6l/1+/+00r1sx/g/MxpfEel0lLSGvAOkKKKKACiiimAUUUUgCiiigAooooAKKKKACiiigAooooAKSlpKAFopKWgAooooAKKKKYBRRRQAUUUUAFFFFIApKKKACiiigApaSigBaBRRQAtFFFAwpDS0hoEFFFFABRRRQAUUUUAFFFFABRRRTAKKKKACiiigAooooAKKKKACiiigAooooAKKKKACiiigAooooAKKKKQBRRS0AeXfHEf8SjSv+u7/wDoIrxvvXsnxx/5A+lf9fD/APoNeN17uX/wfmc1X4j1n4G/63XB7W//ALUr1wdK8i+Bh/0jXP8Adt//AGpXrvavNx38d/L8jal8KCg0UVyFiUUUUwPAfizoE+neLp9QKH7JfYdJMcBtoDKT65Gfoa4fj1r6xubWC8hMVzDHNG3VJEDKfwNZf/CHeHCcnw/pR/7c4/8ACvRo5hyQUZK9jJ07u9z5iCg//qpcKOpFfTv/AAhvhv8A6F/Sf/AKP/4mj/hDvDg/5l/Sf/AKP/4mtlmkf5PxF7F9z5iAU9xS7V9RX07/AMIh4c/6AOlf+Acf+FJ/wh3hz/oX9J/8Ao/8KpZrD+QXsX3PmTavtRhR6V9N/wDCHeG/+hf0n/wCj/wo/wCEN8N/9C/pP/gFH/hR/a0f5A9i+58yYX2ownqK+nP+EP8ADn/QA0r/AMA4/wDCk/4Q7w5/0ANJ/wDAOP8A+Jp/2vH+T8Q9i+58y7V9RRhR6V9Nf8Id4c/6AGlf+AUf+FH/AAhvhv8A6F/Sf/AKP/Cn/a8f5PxD2L7nzNhfajCj0r6Z/wCEO8Of9C/pP/gFH/hSf8Ib4b/6F/Sf/AKP/wCJo/teP8n4h7B9z5nwDSYFfTX/AAhvhv8A6F/Sf/AKP/Cj/hDfDf8A0L+k/wDgFH/hS/teP8n4/wDAD2HmfMny+1Hyeo/Ovpv/AIQ3w3/0L+k/+AUf/wATQPB3hwdPD+k/+Acf/wATR/a0f5PxD2PmfMny+ooOwfxD86+nP+EP8OH/AJgGlf8AgHH/AIUDwf4dH/MA0of9ucf+FL+1o/yfiHsX3PmLKH+IfnS4X1FfTv8AwiXh/wD6AWl/+Akf+FIfB/hw/wDMA0r/AMA4/wDCj+1o/wAn4h7F9z5kAX2o2rX01/whvhv/AKF/Sf8AwCj/AMKP+EN8N/8AQv6T/wCAUf8AhR/a0f5PxD2L7nzLtWjaK+mv+EN8N/8AQv6T/wCAUf8AhR/whvhv/oX9J/8AAKP/AAo/taP8n4h7F9z5k2gUmBX05/whvhv/AKF7Sf8AwCj/AMKP+EN8N/8AQv6T/wCAUf8AhR/ay/k/EPYvufMZCj0o2ivpz/hDfDf/AEL+k/8AgFH/AIUf8Ib4b/6F/Sf/AACj/wAKP7WX8n4h7F9z5jwKMCvpz/hDPDf/AEL+k/8AgFH/AIUf8IZ4b/6F7Sf/AACj/wAKX9rL+T8Q9j5nzJtFG0V9Nf8ACGeGv+hf0n/wDj/wo/4Qzw1/0L+lf+Acf+FH9qr+T8Q9i+58yEKO4pCF7EfnX07/AMIZ4b/6F/Sf/AKP/Ck/4Q3w3/0L+k/+AUf+FH9qr+T8Q9i+58xfKO4/OjK+o/Ovpz/hDPDf/QA0r/wDj/wo/wCEL8N/9ADSv/ASP/Cl/aif2Q9iz5mRS8iJGpeR2CoiglmJOAAO5zX0p4H0ifQvCGn2F3jz44y0gznazEsR+GcVcs/Dei6dOJrLSLC3mXpJDbIjD8QM1qVx4rF+3SVrJGkIcoleTfHQf8gP/t4/9p16zXk3x0+7of1n/wDadRgv48QqfCzydcZ5OPevZ/gkc6BqXp9s/wDZFrxcGvaPgiP+Kb1I/wDT6R/5DT/GvVzB/ubGNL4j0ymml7UleCdQGiiimIKKKKACiiigBKKWikAUUUUwCiiigAooopAFFFFABRRRTASloooAKKKKACkpaSkAUUUUALRRRQAUUUUAIaKWkoAKKKKACiiigBaKKKAFoNFFAwpDS0hoEFFFFABRRRQAUUUUwCiiigAooooAKKKKACiiigAooooAKKKKACiiikAUUUUAJRS0lABS0lLQAUUUUwCiiikAUUUUAeX/ABxP/Eo0r3nf/wBBFeNivYfjl/yDdI/66yf+grXj1e7gP4K9Wc1X4j1f4Gf8fWuf7kH/ALUr16vIPgZ/x963/uQfzkr1+vNx38dm1P4UFJS0lchYUUUUALS02loAWikzRmgYtFNzRmgB1FJRQAtFJRQAtFJRQAtJRSZoAWikzRmgBaKTNGaAHUUmaKAFopM0UALRSUUALRSUUALRSUUALRSUUALRSUmaAHUU2jNADqSkzS5oAKKTNFAgozRRTAK8m+On+r0P/en/AJR16zXk3xz5Gh84P7/j/v3XRgv48SKj91nkor2z4JD/AIpa/wDe/b/0XHXiQ69q9w+Ci48IXZ/vXz/+gRj+lepmK/dfMxpfEei0lLSV4R0hRRRTAKKKKACiiigAooooAKKKKACiiigAooooAKKKKQBRRRTAKKKKACiiigBKKKKQBRRRQAtFFFABRRRQAlFLSUAFFFFABRRRQACloooAWiiigYUhpaKBCUUUUAFFFFABRRRTAKKKKQBRRRQAUUUUAFFFFABRRRQAUUUUAFFFFABRRRQAUUUUAFFFFABRRRQAUUUUAFFFLQB5X8cv+QdpH/XWT/0Fa8er2L45f8gvSf8Aru//AKCK8dr3cB/AXqzmq/Eer/Awf6Rrh/2IB/6Mr14V5J8DR+81v6Qf+1K9bFeZjf47/robUvhEooorlLCiiigAooooAKKKKACiiigAooooAKKKKACiiigAooooAKKKKACiiigAooooAKKKKACiiigAooooAM0UUUAFFFFABRSVDc3lvZpvuriGBf70rhR+poAmzS1kv4o0KPHma3pi5GRm7jGRnGevqDTf+Eu8Oj/mP6T/AOBkf+NOz7B8zYorGPjDw4Ouv6V/4GR/40n/AAmfhv8A6GDS/wDwLT/Gjll2C6NqisQeNPDZ6a/pf/gUn+NL/wAJl4bH/MwaV/4Fx/40+WXZhdG1RWL/AMJn4a/6D+l/+Baf400+NvDQ66/pn4XKH+tHJLsF0blUb7SLHUpI3vbWOdowQpcZ2g4Jx+Qqh/wnPhgf8x7Tv/Ahf8ajb4geFh112y/CTNNQmndJidmrMsHwjoJ5bSLJj/twq386v2Om2emW/kWFrDbRbi2yFAq5PU4HesuPxz4Yk+7r2nfjMo/nUv8AwmXhv/oP6V/4Fx/4037SXxXYJRWxtUlY6+LvDrcLr2kn2F5H/wDFVp29xDdRCW3ljmjPRo2DKfxFRZlaEuKKWikISilpKACiiigAooopgFFFFABRRRSAKKKKACiiigAooooAKKKKYBRRRSAKKKKACiiigAooooAKKKKACkpaSgAooooAKKKWgAoFFApgLS0lFIYUhpaQ0CCiiigAooopgFFFFABRRRSAKKKKACiiigAooooAKKKKACiiigAopKKYC0UUUAFFFFIAooooAKKKKACiiloAKKKKAPLfjl/yC9J/67v/AOgivHa9i+OX/IK0n/ru/wD6CK8dFe9l/wDBXqc1X4j1r4G/e1z6Qf8AtSvWq8l+B33tb+kH/tSvWhXmY7+PL5fkbUfhQlFFFchYUUUUwCiiikAUUUUAFFFFABRRRQAUUUUAFFFFABRRRQAUUUUAFFFFMAooopAFFFFMAooooAKKKKACiisnxB4j07wxp5u9Tn2KchI15eVvRV7/AMhQk27INLamtXDeJfirouhl4LMnUrsZGyFsRqfd/wDDNeaeLfiRqviffboTZaef+XeNuXH+23U/Tge1chivRoYBvWp9xjKr0R1+s/FDxLq29UuxYwn/AJZ2o2n/AL7+9+tcjK7zytJNI8kjHLM7FiT7k0mKB8zBRyx6ADk/gK9SnRp01orGXM2NK5AB6KMD2GSf5k0BQK04fDmtTqGh0bU5FPQraSEfnipx4O8RnpoWpfjbsKfNST3X3i1ZjbRS7a2x4M8Sf9ALUP8Avwaf/wAIT4l/6Ad9/wB+/wD69V7Sl3X3oLSMHaKMCt7/AIQjxN/0Ar//AL9//XoPgfxN/wBAK+/79/8A16n2lPuvwDlkYO0UFRW4fBPiX/oBX/8A36/+vR/whXiX/oBX/wD36o9pT7r70HLIw8CjArcHgnxL/wBAK/8A+/X/ANel/wCEJ8Sj/mBX/wD36/8Ar0e0p9194csjB2igqK3D4M8Rjroeo/hATTD4Q8Qr10PU/wALZz/IUOcH1X3oWpibQacjyQzLJDI0cigBWjYgjHfIrTk8Na3CCZdG1JFHUtaSAfntrMfMblH+Vh1Vhgj8DSXLLZ3KTZ0uk/EnxRo7AJqT3UQ6x3Y80H8T8w/A16N4c+M2nX5WHXIPsEx481CXiJ9+6/qPevEyKMVjUwdKa2s/IpVGj6wtrmC8t0ntZo5oXGVeNgysPYipq+X/AA/4o1bwxdCXS7oopOXhf5o5P95f6jmvb/BnxE07xZGsDlbXUgPmt2P3vUoe49uteTXwk6Wu6N4zTOxpKWkNcpQUUUUwCiiigAooopAFFFFABRRRQAUUUUAFFFFMAooopAFFFFABRRRQAUUUUAFFFFABSUtJQAUUUUAApaQUtABQKKBQAtFFFAwpDS0lAgooooAKKKKACiiimAUUUUgEpaKKACiiigAooooAKKKKACkNLSUAApaSloAKKKKYBRRRQAUUUUgCiiigApaSigBaKKKAPLfjif8AiV6T/wBd3/8AQRXjor2L44j/AIlmk/8AXd//AEEV46K97L/4C9Tmq/EetfA4/Nrg9oP/AGpXrVeR/A3/AF2ufS3/APaleuCvMx38eXy/I2pfChKKDRXIWFJRRTAKKKXmkAUUUUAFFFFABRRRQAUUUlAC0UUUAFFFFABRRRQAUUlFAC0UlFAC0UlFAC0UlFAC0UVy3jfxva+D9PBYLPqEwPkW+f8Ax9vRR+p4Hchxi5NJLUG1a7F8aeN7LwfYqZMT38wzBbA9f9pvRf59B3x4HrWt33iDUpL7UpjLM/T+6i9go7AelQalqV1q+ozX19M01zM253Y/p7AdAOwqsOa9zDYVUld6s5qk+b0FHNaOj6HqGv3ws9KtXuJuC2OFQerMeAP59q6TwT8OLzxSVu7stZ6XkYkx88/sgPQf7X5Z5x7do+i6foNitpptrHbwr1Cjlj6sepPHU81OIxkaV4w1f5BCm3qzgtA+DFhbIsuv3LXs3UwwkpED6Z+836fSu/03RdO0iPZp9jb2q4/5ZRBc/UjrV+ivJqV6lR+8zdQigooorIoKKKKACiiigAooooAKKKKADFFFFACYqG5s7e9iMV1BFNGeqyIGB/A1PRTTa2CyZxGt/Cnw7qqu1tbnTpz0e1+VfxT7uPoB9a8u8T/DjWfDQedkF5ZLybiFfuj/AGl6r9eR719D0da6qONqUut0RKmmfJfWnRu8UqyRSNHIhDI6EgqR0II6GvavG3wqt9WEl9oIS2vuWaDpHMfb+6x9eh7+teMXFtNZ3MlvdRPFNExWRHGCpHY17FGvTrx0+aOdxcT2D4d/Ez+0dmleIJlW74WC5bgTdAFbsG9+/wBevp+a+TCNwr1/4X+PzchNE1qfM4AW1ndv9YOgQnu3oe/16+djMHyXnDbsbU6l9GeqUUA5pcV5pqJRRiigAooooAKKKKACiiigAooopgFJS0lIBaKKKACiiigAooooAKKKKACkpaKAEooooAKKKKAClpKKAFoFFFAC0Gig0DCkpaQ0CCiiimAUUUUAFFFFABRRRQAUUUUgCiiigAooooAKKKKACkpaKAEpaSloAKKKKYBRRRQAUUUUgCiiigAooooAKKKKAPL/AI4/8gjSf+u7/wDoIrx0V7D8cT/xKtJ/67v/AOgivHhXvZf/AAV6nNW+I9Y+Bo/e659Lf/2pXrYryX4Hff1v6Qf+1K9aFeZjv48vl+RtS+BCUUGiuQsSgmlpMUwPJfiF8StT03X5dK0OVLcWuBNP5ayM7kA4GQQAM46ZzmuT/wCFoeL/APoMH8baH/4ipfijoVxpHjC5umVjbX7edFJjgsfvLn1B/QiuNyfSvfwuGoSpJ2TOacpJvU67/haXi/8A6C4P/btD/wDE0f8AC0vF3/QVB/7dov8A4muRzRmuj6pQ/lRPPLudgPip4t76mn/gNF/8TS/8LU8Wf9BJP/AaP/4muOzS5pfVKP8AKg55dzsf+Fr+LP8An/iP/bsn+FOHxW8V/wDP/D/4DJ/hXGZpc0fVKH8qFzy7nZf8LY8V/wDP7B/4Dp/hR/wtbxX/AM/0P/gOn+FcZmlzT+qUf5UHPLudl/wtfxX/AM/0P/gMn+FH/C1/Ff8Az/Q/+Ayf4VxuaTdR9Uo/yoOeXc7T/hbPir/n8tz/ANu6Uv8AwtrxV/z9W5/7d1ric0u6l9Uo/wAqDnl3O2Pxc8U/8/Fr/wCA4pn/AAtjxWf+XyAf9uyVxeaM0fVKH8qHzy7naf8AC2PFf/P7Af8At2Snf8Lb8Vf8/Nt/4DrXE5ozR9UofyoOeXc7X/hbXio/8vVsP+3daT/hbHivteW4/wC3ZK4vNGaX1Sh/Kg55dztP+FseKz/y+wf+Ayf4Un/C1vFf/P8AQ/8AgMn+FcZmjNH1Sj/Kg55dzsv+FreLP+f6H/wGj/wpD8U/Fh/5iMY/7dov8K4/NGc0fVKH8qFzy7nVyfFDxY4I/tQL/u20Q/8AZa5rUL+61S+ku76d57iU5aRzyf8AAew6VAeaQDJpqjTg7xSQ+ZvcFHNeh/Dj4enX5k1PVYiNMjbMcTDH2lh7f3B+vT1qj8OfBH/CU6m1xeBhplqw83Ax5r8ERg+mOW9iB3yPfIokgiWOJVSNAFVVGAAOAAPSuDGYvkvThv3Lpwu7sdHGkSKkahUUABQMAAdABT6KK8g6ApKXNJQAUUUUAFGaMUYpALRSYowaYC0UmDRzQAZoowaMe1AC0UlLQAUUUUAFFFFABXGeO/AFt4rtmuLfbb6pGuI5cYEgHRW9vQ9R9OK7OiqpzlTkpReomk1Znyld2c+n3ktrdxNFPExV0YYIIqMEghlJVlIIIOCCOhB9a9x+Jvgca/YHU9Oi/wCJlbryqjmdB/D/ALw7fl6V4ZX0GHrxrwv16o5ZxcWe8/DXxmfEuk/ZLx86laKBLngyr0Dj37H39Miu6r5c0XWbnw/q9vqVkcSwHJXPEinqp9iP6HtX0ro+qW+taTa6hZtuguEDr6j1B9wcg+4ryMZh/ZTutmdFOfMi9RRRXGWJRS0hoAKKKKACiiigAooopgFFFFABRRRSAKKKKACiiigAooopgFFFFACUUtJSAKKKKACiiigBaBRQKAFooooGFIaWkNAgoopKAFopKWgAooooAKKKKACiiigAooooAKKKKACiiigAooooAKSlooAKKKKACiiigAooooAKKKKACiiigAooooA8w+OA/wCJPpR9Lh//AEGvHBXsfxw/5BOlf9d3/wDQRXjg6172X/wfmzlrfEesfA7/AFut/wC7B/7Ur1uvJPgd/rtc/wB2D/2pXrVeXjf47+X5G1L4EFFFFcpoFFFFMCtfafaanbGC+tobmEnJjmjDrn6GsOX4c+FZfvaHaD/dUr/IiulFLTjOUdE2gsmcr/wrLwl/0BYf++3/APiqd/wrXwn/ANAS3/Nv8a6iiq9tU/mf3hZdjlv+Fa+E/wDoC2//AH03+NH/AArPwl/0BYf++3/+KrqaKPbVP5n94WXY5T/hWPhI/wDMGj/7+yf/ABVH/Cr/AAj/ANAaP/v7J/8AFV1dFHtqn8z+8XKuxyY+F/hEf8waP/v7J/8AFU7/AIVl4S/6AsP/AH2//wAVXVUUe2qfzP7x2XY5Q/DDwif+YNF+Esg/9mpP+FYeER/zBk/7/Sf/ABVdZRT9vU/mf3hyrsckfhb4RP8AzB1/CeUf+zUn/Cq/CH/QI/8AJmb/AOLrrqKXtqn8z+8OVdjkf+FV+Ef+gQP/AAIl/wDiqQ/Crwh/0CPyuZh/7PXX0U/bVf5n94uVdjkP+FVeEP8AoEt/4FTf/F0f8Kq8IH/mEt/4FTf/ABddfRS9vV/mf3hyrscf/wAKq8If9Apv/Aub/wCLo/4VV4QH/MJP/gVN/wDF12FFHtqn8z+8OVdjk1+GHhFemjRn6yyH+bVJ/wAK28Kf9AW2/Nv8a6iko9vV/mf3hyx7HKn4Z+Ez10aL/v4//wAVWb4i8MeEvCnh+71L+xLN3hT90sgL75DwowxOef0zXeZryH41635k1ho0T8IDczAHueEB+nJ/GtqEqtSoo8zt6kySirnljZZ2PGSSTgYH5VPp9jNqF/b2dqm+eeQRxr6sT39h1PsKgAzXpPwa0QXet3WrTJmOyTyoiR/y0ccke4Xj/gdeziKns6bl2OaKbdj1XQdEtvD2j2+n2i4jhUBnxgyN/Eze5PP/ANatSkxS186227s7EklYKSikoAWsfxB4p0nwzbiXVLtYmYfJEo3SSfRR29+nvXOePviPD4YRrDTdk+qsOe6W4PdvVvRfxPofDb28udRu5Lq9mknnlOWkc5J/z6V2YbByq+9LRETqKOh6XrHxuuJN0ei6akK9pbltzf8AfI4H5muQvfiJ4pvnJfWJ4x6QYjA/75xXOYoxXr08FRgtjBzb6mlJ4m12f/W6zqL59bpz/Wq51fUyedRvCf8Ars3+NVCyjqw/Ok8xP7y/nW3s6S6IXMy7/a+pj/mI3n/f5v8AGlGs6r/0Er3/AL/t/jVMunZh+dN8xf7wp+zpdUgvIunV9SPXUbw/9t2/xoGq6kP+Yhd/9/m/xql5i/3h+dHmL/eX86PZUeyC8i7/AGxqfbUbz/v+3+NL/bWqj/mJ3v8A4EP/AI1R8xP7w/OnDDdCD9DS9jSeyQc0i8uv6wn3dVvx9Ll/8au2njbxHZMGi1m9OOgklZx+TEisXbQUIA445x71Dw9N7pB7R9z0PS/jVrVqwGpWttex9yo8p/zGR+lel+GPHujeKVCWk/lXeMm2mIV/w7MPpXzdinRvJFKskLtHIhDI6EhlI6EEdDXHWwEJfDozSNR9T61orzL4cfEn+1zHpGtyAX4AEMx4E4HY/wC1/OvTQc149SnKnK0jZNNaBRRRUjErwr4seGF0bXl1G1Tba3+WIA4WQdfpnr+Jr3Wuc8eaENf8I3tsq5mjXzoTjnevOPxGR+NdGFrOlUT6dSKiuj5wBr1j4Ka8cXmhTNwv+k24J7EgOPwOD+JryUcHFafh3WDoHiTTtSDELBMPMx/zzPDj8jXs4ul7Sk11MKbtI+oqKajB0DKcggEEd6dXzp1BSUUUAFFFFMAooooAKKKKACiikoAKKKKQC0UUUAFFFFABRRRQAUUUUwCkpaKQCUUUUAFFFFAC0UUCgBaDRRQMKQ0tIaBBRRSUwClpKWkAUUUUAFFFFABRRRQAUUUUAFFFFMAooopAFFFFABRRRQAUUUUAFFFFABRRRQAUUUUwCiiikAUUUtAHlvxwP/Eu0j/rrJ/IV48K9h+OH/IP0j/rrJ/6CK8fFe9l/wDAXqzlq/EerfA7/X65/uwf+1K9bryT4Hf6/W/92D/2pXrdeXjf47+X5G1L4EFFFFcpoFFFFMApaSikAtFJRTAWikooAWikzS5oAKKTNLmgAopM0ZoAWikzRmgBaKSigBaKSikAUUUUAFFFIaYB9a+aPFurHW/FWo32cpJMRH/uL8q/oBX0J4k1H+yfDeo3oba8Nu5Q/wC1jC/qRXzHjsea9LLoXbmY1pbIVevNfQXwz0kaV4GsdygTXYN1IfUvyM/Rdo/CvAbe2e8uIbaP788iwr9WIX+tfU8MSQQJFGoCIoVR6ADAFXmMrJR76k0Vq2SUUUV5R0BXH/ETxiPCmiZtyp1G6JS3UjOwD7zke2fzI9668/55r5r8b+IW8TeKbu8DE26nyrcHtGOn58sfc10YWj7WdnsiJysjCkkeaV5ZXZ5HYszMclmPJJPrSAUgFd/8NfAK+I5f7U1RG/suJ8RxEYFw46/8AB49zx2Ne3OpGjDmexzJOTsZnhP4e6r4qVZ0As7DP/HzKpO//cX+L68D3PSvU9J+FHhrTVVp7Zr6Ufx3Tbh/3yML+ldlHGsSKkaqqKAAoGAAOgAp9eNWxtWo97LyOmNOKKFvoGk2qgW+mWUQHQJbov8AIVYFhaj/AJdoR/wAf4VYozXLzS7l2XYrHT7Q9bWA/WMf4Uf2dZ/8+sH/AH7H+FWaKOZ9w5V2K4sLYdLeEf8AAB/hR9gtv+feL/vgf4VYoo5n3FyrsVzY2x/5d4T/AMAH+FeVfGy3hto9EWCKOIEzkhFAz/q/SvXK8m+Oh/5AY/6+D/6LrqwUn7eOv9WIqJKLPJhXqfwr0Gy8Q+F9VtNTgWaD7WCvOGRvLXJBHIPT8q8sFe0fBH/kW9S9ftv/ALTSvUx8nGldOzuY0knLU5jxb8Jb7SY3u9Gke/tVBLRFf3yj2xww+mD7GvPAK+tK8g+LXguO23eIdPj2q7gXcajjJPEntk8H3IPc1zYXGubUKnyZc6dldHlgLKQyMyspBVgcEEdCD2Ne+/DTxe3ifQ/KvHB1C0wk3YuOz49+/uDXgeK3PBevt4b8VWl7uIgdhDcehjY9fwOD+FdGMoe0hdbomnOzsfS1FIrBlBByCM5pa8E6RKKKBQB8w+LNN/sjxXqdkF2pFO2wf7BOV/8AHSKyHG5SPWu/+Mlktt40Sdf+Xq1R2/3gSv8AJRXBMACcHIzwcV9HQnz0lfscjVpH0Z8OtWOs+B9Nmc5ljj8iTJ5yh25P1AB/Guoryv4HX+7TdV08n/VTJOM/7a4P6p+tep14NeHJUa8zqi7oKKWkrIYUUUUAFFFFABRRRQAUlLSUAFLRRQAUUUUwCiiigAooooAKKKKQBRRRQAUUlFABQKKBQAtFFLQAUUUUDCkNLSGgQUUUUwCiikpALRSUtABRRRQAUUUUAFFFFABRRRQAUUUUAFFFFABRRRTAKKKKQBRRRQAUUUUwCiiigAooopAFLSUtAHlvxw/5B+k/9dZP/QVrx8V7D8bv+QZpXtM//oIrx+vfy/8AgfNnLV+I9V+Bv/Hzrf8AuQfzkr1ztXkXwOP+la4P9iA/+jK9d7V5WO/jM3pfChKKKK5SwooopgFFFFABRRRQAUUUUgCiiigAooooAKKKKACiiigAooooAKKKKYBRRRQAUUUUgOQ+Kcoj8AX47u8Sj/v4p/pXz8TXvHxd48Dv73Ef9a8HNezl6tTb8zmqv3rGt4UTzPF+ir2+3Qn8nB/pX00K+afBv/I7aJ/1+J/WvpcVzZi/fXoXQ2EopTSV55scr8SNZOjeCb2SN9k1xi2iOO7df/HQ1fO2MGvXPjhe/u9Jslbq0kzL9Nqqf1avJMc17WAgo0ubqzmqu8i/omkS67rNnpsBIe6lEe4fwr1ZvwUMfwr6a0+xg0zT4LO0Ty4IEEca+gAwK8e+C2nC58RX1+2CLO3Eagj+KRjyPoEI/wCBV7UK48dUcp8vRGlJWVwozRRXEahRRRSAXNGaSigBaKSigBa8k+Of+s0P6T/+069bryT45/6zQ/pP/wC066sD/Hj/AF0IqfCzycCvZvgh/wAgHVP+vwf+i1rxla9l+CH/ACAtU/6+x/6LWvVzD+C/VGNH4j02qeqafFq2l3NjcDMVxGY2yOmR1+o6/hVykJ4rwVudL1Pla8tZLK9ntZgVkhkaNgexBwarsNy4PSur+JNutv491NVGA7I//fSKT+prlq+mpy9pTT7o4Xoz6R8C6g2qeCtKupDukaAKx9WX5T+orfri/hK+74eWQ/uyTD/yK3+NdrXzlZWm15nbHVIKSlpKzGeP/HKELfaPN3eOVc/7pU/+zV5Xk9M8V638cx8uhnvmf/2nXkle9gn+4j8/zOWp8TPRPgncNH4svLcfdlsy5+quoH/oRr3CvBPg8+zx6g/v2kq/qp/pXvleZjlaqzopu8RKKDRXIUFFFFMAooopAFFFFABRRRQAUUUUAFFFFMAooooAKKKKACiiikAUlLRQAlFLRQAlFFFAC0tJS0AFFFFAwpDS0GgQlFFFMBKKWkpAFAoooAWiiigAooooAKKKKACiiigAooooAKKKKACiiigAooooAKKKKACiiimAUUUUAFFFFIApaSigDzP42LnRdNb0uWH5r/8AWrxqvavjWmfDNg3pegfmjf4V4rXvZf8AwPmctX4j1L4HH/iYa1/1yh/m9ewV438D2xq+rr6wRn8mb/GvZK8vG/xmb0vhQlFFFcpYUUUUwCiiigAooooAKKKKACiiikAUUUUAFFFFABRRRQAUUUUAFFFFMAooopAFFFFAHDfF7/kSH/6+Y/614Qa93+LvPgk/9fMf8jXhJr2sv/hfM5avxG14KH/FbaJ/1+L/AFr6Vr5t8D/8jxov/X0P5GvpKuXMP4i9DWhsLSUtJXnmp4l8aZM+LLNOy2Sn85H/APrV50K734yNu8bIP7tpGP8Ax5jXBV9DhV+5ick/iZ7N8EIFXQNTuP45LwIfoqKR/wChGvTK87+Cg/4pG8Prfv8A+i469FrxcS71Zep0w+FCUUUViUFFFFABRRRQAUUUUgFryT45/wCs0P6T/wDtOvW68k+Og+bQv+3j/wBp11YL+PH+uhFT4WeTivZfgh/yA9V/6+x/6LWvGhXs3wQ/5AOqH/p7H/ota9XMP4L9UY0fiPS6D0NFBrwTpZ4D8Vhjx9ee8cX/AKAK46uz+LXHjy4/64xf+g1xgr6TDfwYehxT+JnvPwhP/FBwj0uJgP8Avs13FcP8IP8AkQof+viX/wBDNdxXgYj+LL1OyPwhSUtFYjPJvjl93RPrP/7TryOvW/jl10T6T/8AtOvJK97BfwF8/wAzln8TO1+EfHxAtv8Ar3l/kK+gK+fvhJ/yUG1/64S/yr6Brzsf/F+RtS+EQ0UGiuI0CiiimAUUUUgCiiigAooooAKKKKYBRRRSAKKKKACiiimAUUUUgCiiigAooooASlpKWgApaSloAKKKKBhRRRQISiiigAoNFFMApKWikAUUUUAFFFFABRRRQAUUUUAFFFFABRRRQAUUlLQAUUlLQAUUUUAFFFFMAooooAKKKTNAC0UVBeX1tp1s1xeXEVvCvV5XCj86WvQDg/jSM+ELQ+l+n/ouSvEa9N+JfjvRvEGlrpentNO0VwsonC4jOAwIGeT96vMSa97AQlGjaStqctVpy0PTfgiP+J3qv/XvH/6Ea9hkmihBMsqIPVmx/Ovl7T9Z1DSRN/Z13LbGdQsjRNtLAdBkc1UnnnuXLTzSSseSzsWJ/Osq+BlVqOV7IqFRRVj6gm1/SbcZm1WwjHq9yg/manXUrJ1QpeW7CT7hEqnd9Oea+UsYo2jrgZ9ay/s3+8V7byPrUHIyORTq+TIJ5rWQPbyvC4PDRsVI/EVu2PxA8UacSYdaunz1E584f+P5x+FZyy6a+F3KVVdT6VorxXTPjfqUA26nptvdAADdC5ib6n7wP5Cu30T4q+HNZZY3uGsJycBLsBQfowyv5kVzTw1SG6LUk+p2lJSI6uoZWBUjIIPUfWnVgMSilxSUAFFFFMApKWkpALRSUtABRRRTAKKKKACiiigAooooAKKKWkBw/wAXP+RHf2uI/wCteDmvefi3/wAiNN/13j/nXgxr2sv/AIXzOWt8RveBv+R40X/r6X/0E19I184+AufHejf9fGf/ABxq+j65cx/iL0NKOwGkpaSuA2Z4P8YP+R5I9LWP+tcLXcfF3/ke5P8Ar3j/AJVw5719Dhl+5j6HHP4me4fBUf8AFGXPvfSf+gpXoded/BQ/8UZcf9f0n/oKV6HXh4j+LL1OuHwhRRijFZDCijFFABRRRQAUUUUgCvJfjp10P/t4/wDadetCvJvjr/zAv+3j/wBp11YL+NEip8LPJhXs3wQP/Eh1Qf8AT2P/AEWteMLXs/wQ/wCQDqn/AF9j/wBFrXqZh/BfqjGj8R6YaQ0ppDXhHSzwP4tf8j5P/wBcY/8A0GuLrs/iyf8AivLn2ii/9Bri6+kw38GPojin8TPe/hB/yIUH/Xeb/wBDNdxXE/CL/kn9t7zTf+hmu2r5+v8AxJep2R2Ciiishnkvxy66H9J//adeSV618cvv6J9J/wD2nXkpr3sF/AXzOSp8TO1+Egz8QbX2glP6CvoCvAfhD/yP8H/XtL/Svfq87H/xfkjel8IhooNFcRoFFFFMAooopAFFJS0AFFFFMAooopAFFFFABRRRQAUUUUwCiiikAUlLRQAUUlFABS0lFAC0CiigBaWkpaBiUUUhoEFFFFABRRRQAUUUUwCiiigAooopAFFFFABRRRQAUUUUAFFFFABSUtJQAUtJS0AFFFFABRSUtMApKKKACq1/f2um2j3V9cR28CDLSSNgD/6/sOa53xl4+07wjEYiRdakwylsp6Z/ic/wj9T+teG+IPEup+J737RqlyzgE7Il4jiHoq9B9ep7murD4SdbXZESml6no/iX4zxR77bw3B5jdPtc64X6qnU/VsfSvL9V1jUNbujcapdy3Mp6FzwPYDoB9Ko07I4z1JwAO59AK9elhqdFaL5mEpuQmaM12mgfCvxBrYSW4jXTbZsfPcA7yPZBz/30Vr0DSvg54eslBv2udQkxz5shRM+yrj8iTUzxtGnpu/IFTkzwssoPzMAferNpp17qPFjY3V0f+mEDP/IV9MWHhrRtMYNY6VZW7jo8cChvzxmtPFcssz/lj95ao9z5kbwf4hVip0PUcjri2Yj88c1E/hfXU+/omqAev2OT/CvqDFGKz/tOf8qH7HzPk+4tJrVsXEMsJ9JUKfzqH8civrRlVgQwBHcYrE1LwT4e1bd9s0i0Zm6uibH/AO+lwf1rSOZRfxRE6TPmU0mPWvadY+CdhPl9Iv5rVuojmHmp9M8MPzNeea/4A17w6HkurPzbZOtxbnemPU/xD8RXZTxNGronr2ZLi0VPD/i/WfDEobTLxhFnLQSfNE31B6fUYNexeEPinpviLZa3+2w1AgYV2/dyH/YY9/Y8+ma8EHqKOtTWwcKvk+41UaPrbilrwfwT8ULvQDHZau8l1powqsfmkhHHQnqoHb8vSvbNN1O01axjvNPuEnt5BlXQ5H0PofUHkV4tahOk7SN1JNaFvFFLRWIxKSlNVb6/ttMs5by+mSC3iXc8jnhR/ngDqaLXAs0tcWfi34SBI/tCU47i2kx/KnD4s+Dz11R1+trN/Ra0dKp2YrrudlS4rjf+FseD/wDoKt/4Czf/ABNJ/wALa8Hj/mKP/wCAk3/xNL2U+zC6OzoxXGf8La8H/wDQUf8A8BZv/iaX/hbPg8/8xVh9bWb/AOJo9lPsx3R2WKSuP/4Wx4O/6C7f+Ak3/wARR/wtjwd/0F2/8BJv/iKPZz7MLo7CiuP/AOFr+Du2rsfpaTf/ABFH/C1/B3/QXb/wEm/+Io9lU7P7gujsaSuSi+KPhGaVY01hQznA328qjPuSuB+NdYjq6hlIKnoRUyhKPxKwJo4v4t/8iNN/13j/AJ14LXvnxYGfAdyfSWM/+PV4HXs5d/Cfqctb4jovAP8AyPmi/wDXwf8A0Bq+ja+cPAZ/4rvRf+vn/wBlavo+uXMP4iNaPwi0lKaSvPNTwb4vj/iuWP8A07R/1rhT3ruvjB/yPLf9e0f9a4U19Hhf4MfQ45/Ez2/4NPHH4LlLuilryQ/M3PRR3r0ISI3R0P0avk5ZHj+4xA9jigux/iJ+prjqZdKcnK+5sqqS2PrLPoR+dLivksk+tKGb1NR/Zc/5vwD2y7H1nRXyYWf1NG9/7zfnR/Zcv5vwH7Zdj6z6UgIPQ5/Gvkwu/wDeNHmOOjn86Hlkl9r8A9qj60zS18nxX13buGgup4mB4KSMpH5GvXfhR44vNWnk0fVZjPKib4ZX5ZgOoJ749awrYGdOLle9ilUTPU68k+OnTQ/+3j/2nXrdeSfHT/mBfW4/9p1ng/40R1PhZ5MDXs/wQ/5AOqf9fY/9FrXjC17P8D/+QDqn/X2P/Ra16uYfwX6owo/EemGkNLSGvCOlngPxWUnx3eMCMCOLIyM/cFcYOtdl8Vv+R+u/eKL/ANAFcb3r6PD39jH0RxS+Jnv3wj/5J9af9dZv/RjV2tcT8I/+Sf2n/Xab/wBGNXbV4Ff+JL1OyOwUUUVkM8l+OQ+bQ/pP/wC068lr1r44j/kCfSf/ANp15N3r3sF/AXzOSp8TO2+EX/I/Q/8AXtL/AEr32vAvhF/yP0HvbS/0r32vOx/8X5I3pfCIaKU0lcRoFFFFMAoopKQBS0UlAC0UUUwCiiikAUUUUAFFFFABRRRQAUUUlAC0UlFABRRRQAUUUUALRRRQAtFFFAwpDS0hoEFFFFMAooooAKKKKACiiigAooopAFFFFABRSUUALRRRQAUUUUAFFFFABRRRQAUUUUwCkoooAK89+IHxLj8PiXTNIZZtSIw8nVLf/FvboP0pPiV8QhoML6VpMgOoyr+8kX/l3U/+zH9PrXh7MzMzMSWY5JJ5J9a78JhOf357GdSdtEPmmkuZ3lmd5JZGLM7HLMT1JNM6DJOAKkhgknlSKFGkkkYKiIpZmYnAAA6mvaPAfwwh0pY9R16NJr8YaOA/MkB9+zN79B29a9GrXhQjr8kYKLk9DifCvwv1bxCqXN3/AMS6xYAh5FzJIP8AZT092/I1674d8DaH4YVXsLNWuQMG5m+eU/ien0GBXQ0V41bFVKr1dl2OmNNRFooorAoKKiuLiG1hM1xLHFGvV5GCqPxNc/efELwtYttm1u1Y/wDTEmX9UBoUZPZXBtdTpaSuQPxW8Hg/8hcn/t1m/wDiKtWnxF8KXpxFrdqv/XbdD+rgVXs5rdMV0+p01FQ211BewCa1mimibo8ThlP4ipqjYYUhGaWigDhvFvwv0vxCHuLRRY6gefNjX5HP+0vT8Rz9a8T1zQNQ8OagbTU4DHJ1Rhyrj1U9x+tfUlZuu6BYeItOey1KESRHkEcMh7EHsa7sNjZ0vdlqjOVNPY+XK6Hwf4zv/B9/5kH72ylI8+2Y8MP7y+jY79+/apvGfgW98H3W9ibiwkOIrgDHP91h2P6H9K5ivXap14XWqZirxZ9RaB4gsPEumpe6bMJIzwwPDIccqR2IzWpXzP4O8V3XhDWVu4Q0ltLhbmHPDrnqP9odj9R3r6L0rVLXWtNgv7GUS286hkYfqCOxB4I7EV4WIw7oy8johJSRdryn45XUy2Wj2iuRBLJLK6j+IoFC5/77NerVz/i/wpa+LdINpOxjlRt8MwGTG3fjuD0I/wAKnDzjCopS2CSbTSPmnAowPSvQJ/g34jjYiI2Eo7FZ2GfwK1D/AMKg8Uf88rIfW4/+xr6D6zQ/nRzcsuxwu0UFRXd/8Kf8T/3LD/wIP/xNIfg/4o/552P/AIEH/wCJpPE0P5kPll2OE2j0pNorvP8AhT/ij+5Y/wDgQf8A4mj/AIU/4p/552P/AIEf/Y0fWKH8yDll2OD2+1JtrvD8IPFH/PGz/wDAj/7Gj/hUPin/AJ42f/gT/wDWoWJofzoOWXY4Tb7Ubfau9Hwf8T/3LEfW4P8A8TTv+FPeJv7un/8AgQf/AImj6zQ/nQcsuxwO2vf/AIR3s934HhW4LMIJXijJ7qDwPwzj8K4/TPgnqMt0P7W1C2gtgQWFqWeRh6ZZVC/XB+let6Zplro+nQ2VhCIreFQqKP8APJ7k9687HYilUiow1fc1pxad2c18V/8AkQrv/rpH/wChCvAq96+LRx4En95ox+teC1tlq/dv1Ma/xHQ+ABnx5o3/AF3P/oDV9G185/D7nx9ov/XZv/RbV9GVy5j/ABUbUPhFpKWkrzzU8E+Lp/4ryUelvF/KuIzXbfFz/kfZ/wDrhF/KuIr6LDfwo+hxz+JmxpXhPWNdtHudL0+S5hRzGzI6jDAAkYLA9GH51bPw98UDrol1+BQ/+zV6X8Ev+RPuz637/wDoEdei1x1MxqQm4pLQ1jSTSPm0+AvEq9dEvPwUH+tRnwP4kXrod/8AhFn+tfS2BRgVP9q1P5UP2J8zHwb4iH/MD1H/AL8Gmnwj4gHXQ9S/8Bmr6bwKMCn/AGtP+VC9ifMJ8K68OuiamP8At0f/AAph8Ma2Oui6n+FpIf6V9QYoxR/as/5UHsfM+YE8La9IQE0PVCSf+fSQD8yMV6r8Mfh9d6FO+r6wvlXboY4rcEHy1PUsRxuOOg6D3PHpVLWFfH1KsXHRJlxppO4V5L8dP+YF/wBvH/tOvWq8l+Ov/MC/7eP/AGnWWD/jRHU+Fnkwr2f4If8AIA1T/r8H/ota8YFez/BD/kX9U/6/B/6LWvVzH+D80Y0fiPTKQ9KWkPSvCOlngXxXH/FeXHvDF/6CK4wda7P4sDHjy4/64Rf+giuMHWvpMN/Bj6I4p/Ez334ScfD+0/67Tf8Aoxq7SuL+En/JPrT/AK6zf+jGrtK+fxH8SXqdkdgooorIZ5P8cR/yBP8Atv8A+068lr1r449NE+s//tOvJa97A/wF8/zOSp8bO1+Ef/I/wf8AXvL/AEr36vAvhF/yP8P/AF7S/wBK99rzsf8Axfkb0vhCkpaK4jQSiiimAUlLSUgCiiigBaKKKACiiigAooooAKKKKACiiigApKWkoAKKKKACiiigAooooABS0gpaAFFFFLQMSkNLSGgQUUUUAFFFFMAooopAFFFJQAUtJS0AFJS0UAJRRRQAtFJS0AFFFFABRRRQAUUUUAFFFFMBK5Px/wCMo/COjEwlX1G4yttGecersPQfqfxrp7q6hsrSa5uXEcMKNJI5/hUDJNfNHijxBP4n1+41GfKhzthjz/q4x0X8uvuTXThaHtZ67IicuVGVNNLczyTzu0ksjFndjksx6k063t5LmeOKFGeSRgqqqklmJwAAOvWmAdzwBXs/wq8Ef2faJr2pR/6ZOn+jIw5hjI+9jszD8hx3Ir1q9WNGF+vRHPFOTND4eeAE8OQrqGpRo+qSLwPvfZ1I5AP949yPoOMk97SUV4VSpKpJykdUYqKFoorK1/XbLw5pU2oahJtij4VR96Rz0VR3J/QZJ4FTZvQbdixqeq2WjWL3eo3KW9unV3P6ADkn2FeTeJPjNd3LNB4egFrEDgXMyhpD7hT8o/HJ+lcZ4p8V3/izUjc3rbIkyIbdT8kQ/qfU9T+lYlevh8AklKpv2MJ1eiJtQ1C81Scz391Ncyn+KVyx/Wqu2pVQu6ooLO5wqqCST6ADk11Om/DLxRqiq66b9ljYZD3cgj/8d5YfiK7m6VJatIzV2cjikK+1ejf8KV8Q45u9Lz6ebJ/Py6zdQ+FXijT1LLZxXaAZJtZQx/JtpP4CoWIoN2UkOzOTsb670y4E+n3U1tMOjxOVP6da9I8MfGW9tXS38RxC6g6faYlCyL7so4P4YP1rzee2ltpmhnjeKVDho5FKsv1B5qIjFFTD06q1XzBVGj6o0vVrHWbFLvTrqO5gfo6Hv6EdQfY81dr5i8M+KNQ8J6l9r0990bYE0Dn5JR6H0Pow5H0yD9C+G/Elj4o0mO+sHyp4kjP3o2xyrD1Gfx6ivGxGFlRfdHRGakjZooorlKKt/Y2+p2ctpeRLNbyqVdGGQR/n8q+evHXgybwhq21S0lhOSbeUjp6ofcfqOa+jqy/EOhWviTRrjTbwfu5R8rgcxsOjD3B/PkV04bESoy8nuTOF0fL1d38L/Gf/AAjmq/2ffSY028YDLHiGU4Ab2U9D+B7GuR1nSLnQdXuNOvVxNA2CccMOxHsRg1S27hg17dSnCtT7pnOnys+tetLXAfCnxY2uaGdPu5N19YAISTkyR/wt7nsfpnvXf187ODhJxfQ6k7q6CiiipAKKKKADFGKKKACjFJRQAUUU1mCgliAACSScY9eaYDqWuC174uaFpErQWYk1KZTgmE4jB9N56/UAj3rmZPjldsx8rRoFX/amLH+QreGFrTV1ElzSOs+LYz4Gl/67x/zrwYmu38SfFGbxNoMmmz6ZFDvZWEqSk4IPp/8AXrhia9fA05UqbU1Z3Oaq05aHT/Dvn4gaN/11f/0W9fRQr5f8Pa4fD2vWmqJCs7WzMwjZiucqy9R/vZ/CvQF+Osv8WiIf924I/pXNjcPUqVLwV1Y0pSUVZnsBNFeSD47DvoP5Xf8A9hS/8L2T/oAnP/X3/wDYVx/Uq/8AKa86Of8Ai8MeO5T6wRfyNcLW74w8TjxZrh1IWv2XMap5fmb+nfOB/KsLNe3h4ONKKlukc0tZNnuHwTH/ABR13/1/v/6BHXolfP8A4L+JL+D9JlsBp4uFknM28yFcZVRj/wAd/WulX47R/wAeht+Fz/8AY15FfCVpVHJR6m8ZJJXPXKK8lPx3h7aFIf8At6H/AMTSf8L4i/6AL/8AgV/9hWX1Sv8AylcyPW6SvJT8d4u2gv8A+BeP/ZKP+F7xf9AB/wDwLH/xFL6nW/lDnR61RXk3/C94u+gv/wCBY/8AiKT/AIXvF/0AX/8AAsf/ABFH1Sv/AChzo9aoryQ/HhP+hfb/AMDP/sKB8eE/6AB/8DP/ALCj6nX/AJQ50etivJvjp00P6z/+06Q/HdP+gA3/AIGf/YVx/jfx43jU2WbFbRbXfjEu8tu25zwP7orowuGqxqqUlZImck4tI5YV7V8ERjw1qJ/6fj/6LSvEwcV2fgz4jv4P0yezj05LkTTGYuZdpBKquOn+z+tejjacqlPlgru5lTaT1PoI0V5CPjrJ30JPwuf/ALGl/wCF7H/oBD/wK/8Asa8j6nW7G/OjB+LqbPHUh/vW8Z/TH9K4kVteMPFP/CXayuoG1FqRCsXliTf0zznA9aw92K9zDRcaUU90jlmrt2Pf/hN/yT6z/wCus3/o1q7SvCPCfxTPhfQYdM/swTrEzt5nm7SdzFumPfFbg+Oyd9Bb8Lr/AOwrx62ErSm2o6NnRGaSsz1uivJv+F7Rf9AJ/wDwK/8AsKUfHWD/AKAcn4XI/wDiKx+qV/5SuZC/HEfJoh95/wD2nXkma6zx149XxotiqWBtBa7zzLv3btv+yMY2/rXIZr2cJTlCkoyVnqc87OV0dx8Iv+R/h/69pf6V79XzF4U8TN4V1xdSS3W4ZYmj8tnKj5sc5H0ruB8drkddEh/Ccj+lcOLw9SpUvFaWNacklZnstFeQx/Hf5v3uhccfduuR69VrrvDPxM0LxI6W6ytZ3jYAguCBvPordD9OD7VxToVILVGiaZ2FJS0ViMSiiimAlFLRSASloooAKKKKACiiigAooooAKKKKACiikoAKKKKACiiigAooooABS0lLQAtFFFAwpDS0lAgooooAKKSjNAC0UUUAFJS0lABS0UUAFFFJQAUUUUALRSUUAFLSUUALRRRQAUUUUAFFFISAMkgDuT096YHmnxm8QG00i30aF8S3jeZMB1Eangfi3/oJrxgDNbHizW28ReJr7UefLkk2xA9o14X9BWSCF5PQc172FpqnSS69TlqSuzrPh14WHibxIi3C7rGzxNcAjhuflQ/Ugk+yn1r6Frlvh54b/wCEb8K28cqFby5xPc5HIYgfL/wEYH4E966nNeTiq3taja2RvTjyoWkzS0lc5YySRIYnkkdURAWZmOAoHJJPoBXzp458XS+LdcaYFlsYCUtYj2XP3yPVsZP4DtXp3xg11tM8LrYRHEuouYyfSNcFvzyo+hNeGV6mX0E/3svkY1ZdAAzXT+DfA1/4vuWaJhb2ETYluWGef7qjuf0H6VQ8LeH5vE/iC302ElFfLzSAf6uMY3H69APcivo/TNNttH0+CysYhFbwIERR6f1PcnvW2MxXslyx3f4EU4c2rM7w54O0fwvDjTrRRMRh7h/mlf6sf5DA9q3qSlrxZScnds6UkgooooAxPEPhXS/E9p5Op24dh/q5l4kjP+y3X8OntXhvjLwNfeELndIftGnyNiK6UYx/suOx/Q9vSvoyqmpafbatp81lexLLbToUkU9x/QjqD2Irow+KnRfddiJQTPlbkHmuh8EeK5fCGvJcnc1lPiO6jH93PDAf3l6+4yO+ag8W+G5vCuvzafKzSRD54JSMeZGeh+o5B9xWK3IxXuSUK1PTZmCbiz6wgnjuYI5oXDxyKGRgcggjIIqWvOPg14gbUvDkumTuWm05gqZ6mJuV/Ihh9AK9Hr52pBwk4vodSd1cKKKKgDzn4ueFP7V0caxap/pdiv7wAcvF3/75PP0zXiGfSvrKRFlRkcBlYbWBHBB4Ir5o8YaCfDnie8sFB8lW3wk/88zyP0OPwr18urXvTfqjCrHqM8K6/J4Y8SWmpKSIlbZOo/iiJw35dR7ivpmORZY1kRgVYAgjuD0r5OPII9a+gPhTrR1fwVbxyNmayJtX9cKBtP8A3yRU5jSWk0OjLSx2tFFFeUbBRRRQAUhpaSgApM0ppKYDJZUgieWV1jjRSzuxwFA5JJrwr4gfEibxHJJp2ll4dLVsFhw1zju3+z3C/ifbo/jL4neC2h0C1fDTjzrog/wZ+VfxIyfoK8e716eCwqa9pJehlOb2QtKK2PDHhm98VaxHY2Q2qMNPMR8sSZ6+5PYd/wAzXr8Pwc8NJCqP9tkbHLtPyT68DFd1XFU6LtLfyMlFvY8KzijOa9svfhJ4Xs4jNPdXsMY45mHJ9B8pJPsKwLnwd4fDgWUd5sAwWllHP4Acfn+VVSxUKvwp/oY1aipfEeYkZpNvtXpS+DtJHWOQ/WQ0v/CIaSP+WD/9/DW90c/1yPmeZ7fajb7V6b/wiWk/8+7f9/G/xo/4RLSf+fZv+/jf40+ZB9dh2Z5nj2oxXpv/AAiekf8APsf+/jf40f8ACKaR/wA+mfrI3+NK6D67DszzHbRtr1D/AIRXR/8AnzH/AH23+NH/AAiukf8APmP++2/xp86D67Hszy/ZRtr08+FdJ/59cf8AA2/xpP8AhFdJH/Lr/wCPt/jRzIPrsezPMdvtRtr07/hFtJ/59v8Ax9v8aT/hFdJ/59v/AB8/40cyD67HszzLbRt9q9N/4RTSf+fUf99H/Gl/4RbSv+fb/wAfb/GjmQfXY9meYbaNtemnwppJ/wCXY/8Afbf40f8ACJ6T/wA+5/7+N/jS5kP67HszzPFGK9L/AOET0n/n3P8A38b/ABoHhPSf+fc/99t/jRdC+uw7M81xRt9q9MHhXSf+fUH6u3+NO/4RbSD/AMuY/wC+m/xoug+uR7M8wK0Yr07/AIRXST/y6f8Aj7f40f8ACK6SP+XT/wAfb/Gi6D65HszzIL7UuK9N/wCEV0n/AJ9f/H2/xoHhbSR/y6Z/4G3+NHMH1yPZnmW2kxXp/wDwi2kn/l0/8fb/ABo/4RXSP+fX/wAfb/Gnzh9cj2Z5hto216cfCuk/8+v/AI+3+NJ/wiuk/wDPp/5Eb/GjnQfXI9meZ4pMV6afC2k/8+v/AI+3+NH/AAi2kf8APmD/AMDb/Gi6YfXI9meY7c0hX2r1AeFtI/581/77b/Gj/hFdHPWzX/vtv8aV49g+uR7M8u2Gk25r0q78F6bPERArwSEcMGLAH3B7VwWpadNpd7JbXC4dD1HQjsR7GpaUjopV4z2PUPhh8Rnlkj0LXZyzthbS5kblj2jYnqf7pPXp6V67XyR+efbrX0Z8OfEMniTwhb3Fw266gJt52/vMuOfqVKn6k14uNwypvmjszshO+jOrpKWkrgNAooooAKKKKYBRRRSASloooAKKKKACiiigAopKKACiiigAooooAKKKKAClFJS0ALS0lFAwpKWkNAgoopKACiiigApaSloAKKKKACiiigAooooASilooASilpKAClpKWgAooopgFFFFABXK/EnVzo/gm9kjbbNcYtoz7uef/HQ1dVXkvxvv+dK09W5y9w4/JV/9mrXDw56iiTJ2TZ5QB6V03gDQxr3jGyt5F3QQk3MwPdUI4/Fig+ma5oDmvXPglpgW21TVHALPItqhI5AUbmx7EuP++a9nFVPZ0m1vsc0FeR6rRRRXgnWJSUtIaAPCfjDqBu/Gf2XkLZW6R47bm+cn8iPyrgu9dD48uWuvHOsSN1Fyyfgvyj9Frnx1FfRYdKNKK8jkm7yZ7N8FdGEGiXurOv7y7l8qMn/nmnHH1Yt+Qr02uc+H1qtn4C0aNf4rZZT9X+c/q1dJXg15OdRvzOqKtGwUUUlZjFpKKKACikzRQB5/8YdEW/8ACy6ii/v7Bwc9yjEAj89p/OvC6+nfFkAufCOrxMMg2cv5hSR+or5jFexl024OL6M56qs7nY/CjUTp3j21TPyXsb27c+24H81x+NfQlfMPhVzF4u0V1OCL+AfgXAP6Gvp0Vy5hFKomuqNKTuhaKKK4DQK8n+NukZi0/V4x90m3lI9PvL/7N+der1z3jvTF1bwZqdvjLiEyp/vJ8w/lj8a2w9R06ikTNXiz5sNejfBTVfs3iK901jhbuESLk/xIf6hv0rzk8GtjwdqH9leMdJu84VbhUY/7LfKf/Qs17mKhz0mjng7M+naSlHSg186dQUUlFABRRRQAhpDzxS0dxTQHzP421BtU8Z6tcMcj7Q0a+yodi/oorBztyfQZq3qhLaresepuJD/48arxANNErfdMig/TIr6KHuwSXY5XufR3gXwzH4X8OQQbR9qmVZLl+5cgZGfQdBW1qWowaZaNPOfZUB5c+g/zxVrIAySAAO/pXn2r6i+p3zSnIiX5Y1PYf4nqa8ejSeJqNvbqGIrqhDTd7EN/fz6ndGe5bJH3UH3UHsP69TUHSikr3IwUFyx2PElJyblJ3YuaM0lJV2EOzSZpM0maLAOzRmm5ozTsA7NGabmkzRYB+aTNJmkzRYQ7NGabRRYB2aM03NGaLDuOzRmm5ozSsA7NGabmkzTsA7NLmmZpc0WAdmjNNzS5osA7NGabmlzSsA7NGabmjNFgHZpCaTNFFgDNGaSinYBc0oNNpaVh3HA1xnxDjUPp8uPmYOhPqBtI/ma7IVx3xCPGmj/rqf8A0ClbU2w38RHF9DXsfwMnY6drEJ+4k8bj6suD/wCgivHO9ev/AAK/49Na/wCusX/oJrix/wDCZ69P4j1iko7UV4Z0CmkoooAKKKKYBRRRSAKKKKACiiigAooooAKSlpKACiiigAooooAKKKKAClpBS0ALRRRQMKSlpDQIKKKKAEpaKKACiiigAooooAKKKKACiiigAooooAKKKKACiiigAooooAKQ0tJQAZrwP4r3jXXjq6iJytrFHCvtlQx/VjXvhr5w8dXPm+N9YJUHFyygknt8v9K78vjerfsjKq9DBUc19A/DCx+xeANNDKA86tOx9d7Ej/x0gfhXz4X2o5HZTjFfUOg2g0/w/p1p/wA8LaOP8lArbMZWikRRV22aFFFFeUdAlFLSUwPmjxqhj8a60p6/a5G/AsSP51hZxXb/ABa05rLxzPNj5LyJJl9M42H9VJ/GuINfR4dqVKNuxySVpM+l/A8iy+BtEZCMfYol/EKAf1Brerz34Naut74ONizDzbCZk2552MdwP0+Zh/wGvQq+frRcajT7nWthKKWkNZgFFFFMBKDRQaAMLxrerYeC9XmY4/0ZkH1b5R+rV81AV7L8aNcFvpFro0bDzbp/OlUHkRr0z9W5/wCA142K9jL4ctNy7s5qr1sa/hSFp/F+jRqMk30LY9g4Y/otfTYrwb4SaS2oeM0uyD5OnxNKxxxvYFFH6sf+A17zXLmEk6iS6I0orQWikNFcBqFNZVdSjjKsMEHuDxSmkpoGfKuoWjWOpXdpJ9+3laJvqpI/pVY5CkqSGAyCD0NdP8QbdbPx3rMKdHnEp+rqHP6tXM4r6SD56SfdHG9GfVWmXi6hpVpdp924hSUfRgD/AFq3WB4Gl87wNojellEp/BQP6Vv183JWk0di2EopaKQCUUUUwEo7iijv+NCA+U9QO7Ubo+szn/x41WY7V3dxzU9x81zM3q7H9ahk/wBU/wBDX0a+BHI9z6i8QXBt9FnKnDOAg98nn9M1wZrrvFx/4lsA9Zh/6C1ci1cuXxSpt92cGOk3Vt2Q2iikr0DjCijNITTEFJmikJpgGaM0hNNJphcdmjNMzRup2FckzRmo91G6iwXJM0ZqPdRupWC5JmjNR7qN1OwXJM0ZqPdRuosBJmkzTN1G6lYdx+aTNN3Um6nYVyTNLmog1LuosMkzSg1GDmlBpWGSZpaYDSg1Ih1FFFACUUtFACCloooGGa4v4gHMunjPRX/9lrtK4n4gf8fNj/uP/MUG2F/ir5nI969h+Ba4sdZb1mjH/jp/xrx7vXsfwM/5Busennx/+g1xZh/CfyPYp/Eep9qKKK8E6AooooAKKKKYBRRRQAUUUUAFFFFIAoopKAFpKKKACiiloASiiigAooooABS0gpaAFooooGFJS0lAgooooAKKKKACiiigAooooAKKKKACiiigAooooAKKKKACikpaACiiigApDS0UAJXzL4sbf4v1hvW9m/8AQzX01XzJ4ojMfirVlbOReTZz/vmvSy3WcvQxrbIyiAVOemOa+r4/9WvpgV8nt/q3P+ya+q7KUT2NvKOQ8asD9QDVZkvhFQ6likpaSvLNxaSiigDgvi14eOr+GhfwLmfTiZCB1MZxv/LAP4GvCDX1k6LIpR1DKQQQeQR3FfOfjzwq/hXxFJCgY2U+ZbZiP4SeVz6qePpg969bLq6V6cvkYVY9UM8B+KT4S8SR3MpP2K4AiuQOy54bHqp/Qmvo2KZLiFJYmDxuAysDkEHkEV8nHnjtXp/ws8eLp7LoWrTbbdji0mc8IT/yzJ7A9vTp6UY7DN/vIjpz6M9noNAOaK8k2EpKWkpgFZuva7Z+HNHm1G+fbFF0UHmRj0VR3J/Tk9BVm/vrfTbKa7vJUit4ULu7HgD/ADwB3NfPnjjxjceL9W8zDRWMBItoSeg7u3+0e/p0rfD0HWl5dSZSUUZOuazc+IdZudSvD+9mbO0dEXoqj2AwKoDAyScAUgFeg/Czwadb1JdXvE/0Czf92rdJpRyPqqnn3OB2Ne1OcaFO/RbHKk5M9B+GfhhvDvhhGuU23t6RNMCMFBj5U/AfqTXZUUV8/OTnJyfU60klYQ0UUUhiUlLSUAfPXxQ/5KLqv1i/9FJXKDrXT/EhvM+IOrH/AKaIv5IormRxX0mH/hR9Ecc/iZ9FfDiNo/h/o4fqYdw+hJI/Q11FYfgyIw+CtFRhyLKL/wBBBrcr52q7zb82dcdkFFFJUDCiiimAho7/AI0tGP50ID5Qm4mk/wB5v51FL/qn+hqe5GLqbHTe386gl/1T/SvpNoHG9z6T8Xf8g63/AOu3/sprkTXX+Lv+QdB/12H/AKCa5Fq5cB/C+Z5+N/i/cMNJQaDXoHKITTc0E1W1HUIdKsZLqflU4Vc4Lseij/PTNGyCMXJ2W4+7vbfT4DNeTLFF6nnJ9ABya5a98ejJWws+O0kzdf8AgI/xrmNS1O51W7a4un3MeAB91R6AdhVQDNRdtnoU8LBK89Wbj+MNXdsiSMewQAUg8W6v/fiP/ABWMMilrRPTc29lBdEbI8X6uP8Ankf+Aij/AIS/V/SH/vkVj7iKXJPaq17k+zp/yo1/+Eu1YfwxH8BS/wDCYaqP+WcX5Vj/ADDsaTLf3aLvv+Qeyp/yo2v+Ey1X/nnD+VB8Y6qekcI/4DWLlh/DRlvSi77/AIIPZU/5Ua58Yaqf4Yv++aUeMNW/uxf981jEt6UZb0pfP8h+yp/yo2v+Ew1X+5D+VL/wmGqj+CH/AL5rE3mjcad/MPZQ/lRt/wDCY6r/AM84f++aQ+MNVP8ADEP+A1i7z6UbzVfMPZQ/lRs/8Jfq3pF+Qo/4S7VfSL8hWNvNG80vn+Qeyh/KjaHi7VvSL/vkUHxdqx7xD/gArH3etAbP+FDfmL2UP5UajeKdYbP+kKv0jUf0qM+JdYP/AC/SD6YrPdt7sxABYk4UYA+gplQ2UqcOyNUeJ9YH/L9IfqAat2njPUoGHnbJ17hl2n8xXP0Cl0B0oNWsj0bSvFVlqWI3P2eb+5IeCfY963BXjprtfCXiIzFdPvZCXx+5kY8t/sk+vpUXtuclbDcq5ofcdbijFOpMVZxiUUUUDFFcR8QB+/sT/sv/AOy124riPiB/x8WP+6/8xQbYX+Kvn+RyNey/A0f8SfVj63Kj/wAcFeNV7P8AA0/8STVf+vof+gCuHMP4T+R7FL4j0+ijtRXhHQFFFFABRRRTAKKKKQBRRRQAUUUUAFJRRQAUtFFABSUtJQAUUUUAFGKKWgAooooAWiiigYUlLSUCCiiigAooooAKKKKACiiigAooooAKKKKACiiigApKKWgAopKWgAooopgFFFFIAr5x8f2jWfjjVkb+Ocyj6N83/s1fR1eHfGWz+z+LILkDC3NspJ9WUkH9Ntd+XSSq2fVGVZNxPP8AsR7V9J+B7xb/AMEaPODk/ZURj/tKNrfqpr5rJr3D4Mah9q8HSWrH5rO5dAP9lsP/ADY/lXVmMb00+zIoaNnoZpKdTa8Y6QooopiCsLxd4Yt/Fmhy2MxCSj54JcZMbjofoehHpW7RRFuLutwaTVmfKuqaZdaNqU1jfxGK4hOGX19CD3B6g1UOCuD0r6H8eeCLfxdp4aMrFqMAPkzEcEddjex/Q/jXgN/YXOl301nexNDcQttkRhyD/Udwe9e9h8Qq8fPqjmlFpnqXwz+I2fK0XXbj5uFtblz17BGPr6E/T0r1oGvkrrXrPw4+JW3y9G1+YAABba6c/gFY/wAm/OuLF4S3vw+aNIVOjPXKiuLiK1t5J7iRIoY1LO7nCqo6k055USJpGdVjVSzOxAAGM5J9K8J+Inj5/Et0bDTnZNKhf6G4YfxEf3fQfj16cdChKtLlRcpKKuVvH/jqXxXe/Z7XdHpcDZiQ8GVum9h9Og7D3zXH45petanh3w7feJtVjsNPT5jzJKw+WFf7x/oO5/GvejGFCFtkjlbcmWvCHhS68XawLSAtHbx4a5nA4jX0H+0ecD6ntX0Rpun22ladBZWcQit4ECIg7AfzPv3qp4c8P2fhnSYtPsV+VfmeQ/elc9WY9ycfgAAOBWvXiYnEOtLyR0whyoKKKSuYsKKKKYCUh6UtV72b7NaSzbJJPLXdtjUszY7ADkmhbgz5w8X3IvPGGrzqcq11IAfUA4H8qx9hcFVGWbgD1J4qW4LtcStICJC5LBgQQ2ecg9K1PCdmdQ8W6RbAZDXcbMPVVO5v0U19MkqdL0Rw3bZ9I2dulrZw28Y+SKNUH0Ax/Sp6BRXzDd3c7hKK5jxF8QdB8MXX2W+uXe6wC0MMe5kB6E9APpnPtWE/xs8Or9231F/pEv8AVq1jQqSV1F2E5JdT0SivOf8Ahdvh8/8ALlqWP9yP/wCLqW3+M/hyaZEkjv4A3BkkiXaPc4YnFU8NVX2WLmXc9BxRUdvcRXUCTQOskTgMrqcgg96krDW5R8pXH/HxLnrvb+dV5h+5f6f0q1d8Xk//AF0b+dVpf9U30r6R/B8jj6n0p4u/5B8H/XX/ANlNci1db4uP+hQf9df/AGWuSaufAfwjz8b/ABn8iM0hpxpprvOUaa4PxvfNNqqWg+5boPxZgGJ/LA/Cu8Nea+KGLeI73of3g57jC4pSOnCJObfZGRjJrsfAPgKXxhNNNPK1vp1uwV3QfPI2M7VJ4GARk+4/Dj1619C/Cu3SD4e6aVABm8yViB1Jduv4YH4VwYutKlD3d2epCPMx1v8AC7wpboFOmGQj+KSeQk/+PVYHw48LDppSD/trJ/8AFV01FeT7er/M/vN/Zwe6OZ/4Vx4YP/MM/wDI8n/xVJ/wrbwwf+Yb/wCTEv8A8VXUUUe3q/zP72L2NP8AlRy3/CtvC/8A0DT/AOBMv/xVH/CtvC//AEDD/wCBEv8A8VXU0Ue3q/zP7w9jT/lRyv8AwrXwv/0DT/4ES/8AxVL/AMK18L/9A0/+BEv/AMVXU0Ue3q/zP7w9jT7I5U/DTwuf+Yaf/AiX/wCKo/4Vp4X/AOga3/gRL/8AFV1VFH1ir/M/vD2NPscofhn4X/6Bzf8AgTL/APFUf8Kz8L/9A9v/AAIl/wDiq6uij6xV/mf3h7GHY5X/AIVp4X/6Bzf+BEv/AMVS/wDCtfC//QNP/gRL/wDFV1NFH1ir/M/vF7Gn2OV/4Vt4X/6Bh/8AAiX/AOKpT8NfC5/5hv8A5MS//FV1NFHt6v8AM/vH7Gn/ACnJn4Y+FT100/8AgRL/APFUn/CrvCY66Vn63Ev/AMVXW4oo+sVf5n94KlBdDk/+FYeEv+gSv/f+T/4qj/hWHhL/AKBK/wDf+T/4quroo9vV/mf3j9nHscn/AMKv8J5B/skZH/TeX/4qsLxJ8H9MubN5NB32l2gJSJnLxufQ7iSCfXOPavSaKccTVi7qTE6cex8n3EElrcSwTIySxMUdGGCCDgg++aYrsjK8bFXUgqQcEEdDXZ/FiwWy8d3LRgAXMaTED1xg/mVJ/GuLr6CnL2lNT7o52rOx6zpV7/aGl211xmVAWx2bow/PNW6wfBTlvDkYP8Ekij88/wBa3jVpnjVElNpdGJSUtJVEBXFfEH/j40//AHH/AJiu1rifiD/x9WH/AFzf+YpM3wv8VfP8jka9l+Bn/IH1b/r5X/0CvGq9k+Bn/II1f/r5X/0CuLH/AML7j2KXxHqVFHaivCOgKKKKYBRRRQAmaKKKQC0UUUAFJS0UAFFFFABRRRQAUlLSUAFFFFABS0lAoAWiiigBaKKKBhSUtJQIKKKKACikpaACiiigAooooAKKKKACiiigBKWiigApKWkoAWiiigAooooAKKKKACvOvjNpf2rwzBfqPnspuT/stx/MLXotZ2vaUmt6He6dJjFxEyAnsf4T+BArSjPkqKXYmSumj5cJ5r0X4L6utp4ku9PkOFvYQyZPV0zx+Ksf++a88mhktriWCZSssTFHUjBUg4I/OrOm6hNpGpW2oWpxNbSCRBnrjqD7EZB+te/Xh7Wm13OeL5WfVVFU9M1GHVtLtr+1bdDcRrIh9iM/nVyvnGrOx1hSUtBoEJRRRTASuO8feA4fFln59tth1OFcRSEYEg/uN7eh7V2NFVCcoSUouzQmk1Y+UbuzuNPu5bW7iaGeJirowwQRUPWvoD4g+AofFVn9ptAsWqwr+7c8CUD+Bv6Ht9K8EuLeazuZLa5iaKeJiro4wykdQRXvYevGvHz6o55RaZsS+L9Wn8NLoU1y72iybsljuKgDCE55UEZA/wDrYxetIKv6PpVzreqQ2FkIzPMcL5jhVGOSeevHOBzW8YQpJtaLdkNuRP4f8PX3iXVEsdOjy5+aSRvuwr/eY/yHU19B+GPDFl4V0pbOyXLH5ppmHzyt3JP8h2pPCvhiz8K6QlnaANIcNPMRhpXxyT/QdhW5XhYrFOq7LY6KdPlVwooorlNBKKKKACkpaSgApaSq1xqVpaXlva3FxHHPclhCjHBfbjOPzoAwvFHgPSfFEbyTx+Re4wt1EMMPTcOjD2P4EVxHgzwNqOgfEaH7bEWt7eCWWK5VfkkJwgGexw54PPH4169S4reGKqQg4XumS6abuFHSg0VgUfJ+ptcy6rePfFzdNO5m3dd+47s++arAV9CeI/hxonim/a9MkltdZKyvbsuHI/vDnkfgfWsGT4H2Z/1Wrzr/AL8Ib+or3aWPo8iUnZ9rMwlCSZ40MetKOTXrjfAsH7uugD3syf8A2pU1l8D7WO4V77VnuIgfmjjh8vd7E7jVvH0EtHf5P/Inkl2N/wCE7zP4KtvNJKjITPpXa96gs7OCwtI7e1jWOGMBVVRgAVNnkV4NSanNyXU6IppI+Vbzm9uP+urf+hVWl/1TfSrN0f8AS5z6yN/Oq8v+qb6V9F9hehyPc+kfFv8Ax5wf9dP6VybV1vi3/jygP/TXH/jprkmrmwP8I8/Gfxn8hhpDQaQ13nKNNeZ+Jx/xUV7/ANdP6CvTDXmnicY8RXoP9/8AoKT2OrB/G/Qylr6N+Gn/ACTzR/8Arif/AEJq+chxX0l8P5YJfAukG1bdGsAU+oYcMD7g5rzMx+Bep6tLdnSUUUV5BuFFFFABRRRQAUUUlAC0UmaM0ALmjNJmjNAC5oopKAFopKKAFopKKAFopKKAFpKKKAPDfjTx4xtfeyTP/fb157XbfFrULfUPGmbWaOZILZImaNgw3ZYkZHpmuJBr6PC6UYryOSfxM9D8C/8AIvv/ANfD/wAlroTXPeBuPD7f9fD/APstdCa2R41b+I/UQ0lKaQ1RmFcV8Qv9fp/+4/8AMV2lcV8Qf+PjT/8Arm/8xUyOjC/xV8/yORr2f4GrjQ9Vb1uwP/HB/jXjFe0fA7/kAap/19/+yLXFmH8L7j2KfxHp1FFFeGdAUUUUAFFFFMBKKWikAUUUUAFFFFABRRRQAUUUUAFJS0lABRRRQAUCiigBaKKKAFoooNAwpKWkoEFFFFMApKKWkAUUUUAFFFFABRRRQAUUUUAFFFFABRRRQAUUlLQAUUUUAFFFFABRRRQB4R8XvDn9l+JhqUKYttQG4kDgSD7358H8TXBg+tfSnjTw8vifwzdWOB52PMgY/wAMg6fnyPxr5skjkgleKVWSRCVZSMEEcEGvcwFXnp8r3RzVI2Z618GfEoME2gXD4aMma1z3Un5lH0PP/AvavWa+UrK+n0y/gvrN9lxbuHRvcdj7EcH619I+FPEdr4p0KG/tiNxG2aPvG46qf88jFcWOock+ZbM1pyujcooorgNBKKDRTAQ0UGigBRXA/EnwCviO1Oo6agGqQryo4+0KP4T7jsfw9Md9S1VOpKnJSi9RNJqzPkxlZHZHUq6kggjBBHUEUquyEMjFXUgqwOCCDkEEdDXr/wAUfh+b0S67o8eblBm6gUf6wD+MD+8B1Hcc9evjoNfQUa8a8L/ejllFxZ7t8NvHi+IrRdO1CQDVYE6n/luo/iHv6j8fYd/XyhbXM1ndQ3VpK0VxCweN1OCrD/PSvoXwJ4xh8XaMJCFS/gAW5iHY44Yf7J5x6cjtXk4vDezfNHZm9Od1Y6qiiiuI0EooopgIaKKRiACSQAOSScY9eaAKupajbaTp899eSeXbwIXdvb29STwB6mvnLxR4pvPE2vPqMzNEFOLeMMcQqOn49yfWuk+JfjoeIrn+zNNc/wBm275Zx/y8OOM/7o5wPx+nn5r18FheVc80YVJ3dkdrovxZ8Q6RtjuJY9QgGBtnHzAezDn8816HoXxe0LVNsd9v06Y8fveUJ/3h0/GvB8UEVtVwVOeqVn5CVRo+sLa5gvIFmtpY5omGVeNgwP4ioNW1S30bSrjULs4ht0LtjqfQD3JwPxr5j0rWNR0SfztLvJrZ85OxsBvqvQ/jXS638SNR8ReGH0nUoYzKZEfz4vl3Bc5DL0OeDkY6dK4Xl81NLdGntFYt/DnxlPY+NpY7582+sTHzMnhZmJKt+JO0/Uele8dq+S8sCGQlWBBUg8gjoa+mPBuvL4k8MWV/keayBZgO0g4YfmM/QirzGgoNSitNgpyurM3cUlLQa8w1GmjuKDR3FNCPlW6/4+5sdPMb+dV5P9U30qe5/wCPqb/ro386gl5jYe1fR7xON7n0j4u4sIf+uw/9BNckxrrfF/Gnwf8AXYf+gmuRaufAfwjz8Z/F+4aTTSaU0013nKITXm/irjxHd+5X/wBBFejmvOfFPPiG6+q/+grSlsdWE+N+hj9K734YeNv+Edvm06/k/wCJddNkMT/qX6bv909/pn1rhAM1t6j4buLHR7DWIwZNPvEBDgf6t+6N+IOD3rmqQhUXJPrt6npRbWqPpZHWRQ6EMrAEEHqKqahq+n6Sm7UL23tgRkebIFJHsOprxrwt8R9R0jw/f2DbZnggDWbyH7h3Ku3n7wAbcB2we3TjLhpr65kuL2eSeeQku8hyST3zXBSy2c5NSdkjSdeMUfS2na5pusKx06+gudv3hG+SPw61oV8s2813pd1Hd6dPJFcRHKspwf8A6/0r3H4f+PofFdkLe6ZItUiH7yPoHA/iUfzHassVg5UHdO6Kp1VNHa0UUVxGglFLSUAFFFFABRRRQAUUUUAFFFFABRRSUwFopKKAFryr4k/Ef7N5+iaFIfO5S6ukP3OxRT69ie3Qc9H/ABF+Jf2MTaNoM2bggpcXSH/Veqof73qe3bnp471r0MHg+Zqc1oZVKnRCGgUpBGKAOa9lRSOe56H4GP8AxIG/6+H/AJLXQmud8Df8gF/+vh/5LXRGkeRW/iP1ENJSmkqjMSuK+IX+v0//AHH/AJiu1riPiEf9IsP9x/5ilLY6MJ/FXzOSr2r4Hf8AIv6n/wBfg/8ARa14oK9q+Bx/4kGqD/p7H/oC1w4/+F9x7NP4j04dKKO1FeIbhRRRQAUUUUgCiiigAooooAKKKKACiiigAooooAKKKSgAooooAKKKKAFooooAWiiigYUlLSUCCiikpgFLSUtIAooooAKKSigBaKSloAKKKKACikooAWkopaAEooooAWikooAWiiigAooooAK8a+LvhA2t0fENkn7mYhbpR/A/QN9D0Pv9a9lqC7s4L+0mtbqNZIJkKSI3Rgeta0KrpTUkTON1Y+UuldD4J8Xz+D9YEwzJZTELcw+o/vL/ALQ/Uce4k8ceD5/COsGPDSWMxJt5iOo/un/aH69a5mveahXp3WqZzq8WfVthf22p2UV3ZyrLBKoZHU8EGrNfOvgTx3ceELoxTBptMlOZIs8xn+8v9R+Ne+aXqlnrNjFeafOk8EgyrKf0I7H2PIrw6+HlSlrsdMZJovUlLSVgMKKKKYBS0gpaACvHfif8PfIM2v6NF+65a7gUfd9ZFHp6jt19cew0hGeDWlGtKlLmiKSTVj5OXtWx4W1u48O+JLO/tmOBII5kH/LSMsAy4/Ue4Bru/G/won+2PfeGYQ8UrZeyBVTGT1KEkDb/ALPbtkcB3gH4YX9tq8Op+IIUhS2bfDbFgzM/ZmIyBjqBnr9K9epiaM6Td9+hgoSTPXqSlpK8M6ApKWobm5hs7aS4upUhgjXc8jttVRQBL7V498S/iIt6suh6JLm3B23Vyh/1mP4FPpnqe/061fHXxQk1hZdN0MvDYnKyzn5XmHoB/Cv6nv6V5z1NephMF9up8kY1KnRCda0NF0W91/VYdP0+PzJ5T1P3UUdWY9gM/wAgOSKZpel3esajDZafA09xKeFA6DuSewHqa+gPBPg+38I6R5QKy3s2GuZsfebH3QcZ2jnA9ye9dWKxKoxst2Zwg5PyMa5+EWiTaNbWkTSQ3UC4a6QDdK3csDwcn8ulcPrHwi17T2LWIj1CId4yEf8A75Y/yNe8UhrzKeNrQ639TZ0os+X7rw3rNkT9q0i/jx1Jt3I/MAis6RTESJEdD6OpH8xX1jijFdKzSa3iifY+Z8leYn99fzr1H4Ja6kV9faM8q4lAuIVz/EOGA/DafwNex7R6UuB6VlXx3to8rjYqNOzuLQaKDXAaCGk7ig0ncfWmgPlW4ObmYju7H9ahb7hp8hy7H1J/nTG5U19H9k4mfR/jD/jzth6yE/8Ajtci1db4w/49rX/fP8q5RhWGA/hHBjf433EZpppxppruOUaa848T/wDIw3X1X/0EV6Oa848T/wDIwXX1X/0EUPY6sJ8b9DLXrXv3w+sbfU/hhYWt5CksEqSI6MOCPMYf5NeAA819DfC0/wDFutK+kv8A6NevLzC6gmu56dJXkeX+OPANz4SujeWoefSnb5ZOrQk/wt7eh/OuWVgwBBr6imhjuYHimRZI3BVlYZBB6givEfH/AMPZPDcj6lpSs+lscyRjk25J/Mr79q2wOPUv3dTfoya1G+qOOFNR7iyvI7/T5Ghu4TuVlOCcf19u9IrdDUgNelUgpKzOWMnB3R7X4B+IVv4ptktbtkh1RB8ydBLj+Jff1H+R3Ga+Vn820nW8tHeKeMhtyHB4Ocg9iK9t+H3xAi8T262V+6JqcY47CYDuB6juPxHt89i8I6bvHY9ClUU0d5SUtFcJqJRRRQAUlFFAC0UlFMBaKSloAKQ0tFACV5d8SfiP9k87RdDl/f8AKXNyjf6v1RT/AHvU9ulJ8QviX9nE2kaBNmblJ7tD9z1VD6+p/KvICMmvRwmDcvfmvRGNSpbRDeprR0bRrzXNRistPhMs8h47BR3Zj2Ap2iaHe6/qcVhp0PmTyHJJ4VFzy7HsBn+gyTX0F4S8JWfhTTBBbfvLiTBnnYfNI39B6DtXXicUqKtHcyhBzZ5B8Q/DkHhaPRrCDDuLdmlm24MrluSf0AHYYrihXqPxyH/Ex0g9zFKP/Hlry4VvhJOdFSbu9RzVnZHoPgf/AJAL/wDXw/8AJa6I1z3gjjQH97h/5LXQGtjxa38R+olFBpKZmIa4j4gn/SrAf9M2/wDQq7euG+IP/H7Zf9cm/wDQqmex0YP+KvmcmK9o+Bh/4kmqj/p6H/oArxcV7T8DP+QJqp/6eh/6AK4cd/C+49mn8R6h2oo7UV4puFFFFABRRRQAUUUUgCiiigAooooAKKKKACiiigApDS0lABRRRQAUUUUAApaKKAFooooGFJS0lAgooopgJRRRSAWkpaKAEopaSgAoopaAEpaSloASiiigApaSloASloopgFJS0UAJS0lLSAKKKKYBRRRQBma9odn4i0mbT75N0UnRh1Rh0YHsR/8AWr548VeFL7wpqrWt4u6JsmCcDCyj29D6jt9K+mhWfrWi2Wv6bJY6lCJYH59Cp7EHsR6104bFOi/JkThc+WT2rZ8M+LNT8J3vn6dLmNj+9gfJjkHuOx9xzWt4y+HmoeFJHnXdd6YT8two5T0DgdD79D7dK5EivatTrwundMwu4s+jfCfjzSvFkKrbyeRegZe0lI3g45K/3h7j8QK6ivkpWaKRZI2KOpBDKSCCOhBFegeGfjBqukolvrEZ1G3GFEhbbMo+v8X48+9eXXwEo6w1RtGonue60Vyej/EvwzrCqF1BLWUjmO7/AHZH4/d/WupikSaMPE6ujDIZTkH8RXDKMouzVjRNPYfS0UVIBRRRQAUUVTv9VsdKTzNQvbe2QjOZpAufpnrRZhsXKSuC1j4w+H7BStgZtRmxwI1KJn3Zh/IGvOvEXxO17X1eGOVbC0fgxW5IYj0L9fywPauqlg6tTpZeZEqkUereKviJo/hgPCz/AGy/XgWsLcg/7bdF/n7V4t4l8X6r4quN+oT4hU5jt4+I0/Dufc5NYXSkzgZPSvWoYKFL3nq+5hKo5C9TWjoeg3/iDUkstNgMszfePRY1/vM3Yfqe2TW/4Q+HWqeKClxIGstO4PnyL80g/wBhT1H+0ePTNe26D4d0/wAN6etnpluI06ux5eQ/3mbuf5dBgVnicbGn7sNX+Q4U29zP8G+C7PwjYssZ868mA8+4IALY/hHoo9K6WilrxZzc25Sd2dKSSsgooopAFFFFIAopKKAFpKKKAENHcUGk7imgPlKQYdvqf503GcA+tSS/61/94/zpijLqP9ofzr6R/CcTPo3xcM21t/vn+Vcm/Wut8W/8elv/ANdP6VyT9a5sD/CRw43+L9xGaaacaaa9BHIMavOfE/8AyMFz/wABP/jor0Zq868VDHiC4+if+giiWx1YT436GQOtfQ/wt/5J3pf/AG1/9GvXzwOtfRHwvGPh3pX0k/8ARj15eYfw16nqUviOtqOWNJ4njkUOjgqysMgg8EEelPozXjnRY8I8e+BJfC909/YIz6RI2cDk2zE/dP8As+h/A9ieSByBjoehr6gngjuYXhnRZIpFKujDIYEYIIrwzx/4GfwndfbLAM+kztgAnm3Y/wAJPcHsfwPqfdwGO5rU6m/RnHWo9Ucqo3Cs9ZZ7C+EttK8UsT7kdSQynqCDWhG+en4VBrEPkatcRf8APNtpx6gAV6FaKkkmY0G4yaPcfh549j8U2Qtrxkj1WJfnQcCVR/Eo9fUf5Hb18pWN3cWF7FdWczQzxMCkinBU/wCHtX034d1GTV/Dun38yKktzbpK6joCVBOPbNfO4vD+xldbM74TUjSopcUlchYUlLSUwCiiigCK5uYbK1lubmVYoIlLySMcBVHevObj43aVHelINNvJrYHHm7lUn3C/4n8qT42anNb6JYWEbYju5meTB+8EAwD7ZYH8BXjFd+FwkakeeRlOo4uyPp/QNf0/xLpq3umTeZGW2sCMMjYztI7EZrzP4gfEw3vnaRoEpW25We7U8y+qp/s+/f6dee8J3c1v4E8YLC7ISlsvB7M5Vh+K8fSuUIyeK3w+Cjzyb1Sen5kTqOysNx6Vo6Lol7r2px2Gmw+bcP8AMc8Ki55Zj2Az/QZJp2iaHe6/qUdlp0Rkmf5iTwqL3Zj2H8+1e+eEfClp4U0oW0H7yeQhp52XBkb+gHYdvqTW+KxSpK0dX+RnTg5vyDwl4Ts/CemC3th5lxJhri4Zfmlb+ijsvb6kk9DRRXhSk5Nts60klZHjnxx/5CekD/pjJ/6EK8uHWvUfjgv/ABM9IOesMg/8eH+NeX9D1r6DA/wEc0/iZ6F4JH/FPn/ru/8ASt81g+CR/wAU6vvNJ/St410o8at/EfqNNFKaQ0zIbXEfEAf6ZYn/AKZN/wChV25riviAP9IsD/sP/MUp7HRg/wCKvmcgK9q+Bv8AyAtU/wCvsf8AoArxYV7R8Df+QFqn/X2P/QBXBjv4X3HtU/iPUO1FHaivENgooopgFFFFABRRRSAKKKKACiiigAooooAKKKSgAooooAKKKKACiiigBaKBRQAtFFFAwpKWkoEFFFFMAooopAFFFFACUUtFACUtFFABRRRTASilpKQBQKKKAFooopgFFFFABRRRQAUUUUAFFFFIApRSUUANdFkQo4DKRggjIINeZeLvhBb3xku/DrLazHJa1b/Vuf8AZP8ACfbp9K9QorSlWnSd4OwnFS3PlXVNHv8ARLv7NqdpLbTdlccN7qRww9wapFa+rb7TrTU7Zra+toriBuqSoGB/A151r/wXsrndLoV01m/aCYmSP6An5h+terSzGE9Kis/wMXTa2PFimas2V/faa++xvLi2b+9FIyn9DWz4i8Gav4XWJ9UijEcrlEkjkDBiOTx1HXvWDiu5KFRc0dUZ3cXY6W1+JPiy0XamsSOP+msaSfqwJrRi+L3iqMDfNaye7wDn8sVxJGB1pOal4Wi94oPaS7nd/wDC5PE/YWA9/IP+NV5vi14slzsvYYv9y3T+oNcZR9an6pR/lQ/aS7m5eeNfEt+WM+t32G6iOTy1/JcCsRyZHLyMzOTksxyT+NN8xem4Z9q2NP8ACevaoyiy0a9kDdHaIoh/4E2B+tXy0qavokK8mZIpeO5r0LSvgxrd2FbUbq1sEPVVJmkH4DC/qa7vQ/hT4d0hhLPA+oTg5D3hDKD7JgL+YJ96xqY+jBWWr8hqlJnj3h/wbrfihg2mWhFvnm5mJSIfjjJ/4CDXrPhn4TaRom241I/2neA5BlTESH2TkH6nP4V3iqEUKoAUDAAGAKWvLr42pV0vZG8aSQYxwOBS0UVyFhRSZooAWkoooAKKKKQBRRRTAKKKKAENHp9aDQeo+tAHyi5y5PqTRHzLH/vj+YpD1P1p0X+vi/31/mK+kfwnEfRviwf6Jb/75/lXJyCut8W8Wtv/AL5/lXJSVzYH+EcON/i/cREUw080wivQRyEZrzzxX/yME/8Aup/6CK9EavO/FnHiGf8A3U/9BFEtjpwnxv0Mgda+h/hf/wAk70r/AHZP/Rj188DqK+hvhb/yTnS/pL/6MevLzD+GvX9D1aXxHW0UUV450BVXULCDU7Cezu41kgnQpIp7g/yPcHsatUUJtO4bnkNt8G76HVwJNQtzpyyhgQGMrKDnBHQHtnJrzzxIMeJtUA7XcoH/AH0a+oR1r5f8T8+KtXP/AE+zf+hmvZwWIqVpNTd7I5qkFHVdTNWvpXwO27wPoh/6c4v/AEEV81r1r6Q8Atu8CaL7WqD8hilmS9xPzHR3Z0VJS0leOdAUUUUwEopaSgDyT46dNC+tx/7TryXNetfHX72hj2n/APadeS17uCX7lfM5qnxM9D+FNhHrVt4l0mU7Vu7aLDYztIZtpx7Eg/hUifCHX/tGxjZhM/6zzjjHrjbn8KX4ISbfFOoR/wB6yDfk4H9a9urjrYmpQqSjB6M0VOM0mzC8K+FbLwrpYtbUb5Xw087D55W9T6D0Hb65J3qSivOlJyd3uapJKyFoopKAPHPji2dT0hfSGQ/mw/wry/vXpvxv/wCQ3pY/6d2/9CrzLvX0GC/gI5Z/EeieCP8AkXF/67SVvmuf8Ef8i8P+u7j+VdAa6EeLX/iP1GmmmnGkNUZDTXFfED/j4sP9x/5iu1ri/iD/AK6w/wBx/wCYqZ7HTg/4q+ZyA617R8DP+QLqv/X0v/oArxcV7R8DP+QLqv8A19L/AOgCuHHfwvuPZp/EeodqKO1FeIbhRRRQAUUUUAFFFFABRRRQAUUUUAFFFFABRRRQAlFBooAKKKKACiiigBaKBRQAtFFLQMSkpaSgQUUUUwCiiigAooooAKKKKACiiikAUUUUwCiiikAlFLRQAUUUUAJRRRQAUUUUAFFFFAC0UlLQAUUUUAFLSUUALS0lFAHnHxrRW8L2L/xLehR9CjE/yFeKYr2z41NjwvYr63qn8kb/ABrxSvey/wDgfNnLV+I9F+Dun2moapqqXtrBcIsMZCyxq4BLN0yOK9Pk8F+HJTl9D078LdR/IV518D/+QrrH/XCL/wBCevYa87GTkqzs2janFOKujnj4A8Ln/mB2X/fsVJH4I8NR426Dp2f9q2Vv5it2iub2s+7L5V2KtrpllYjFnZ28A9IolX+Qq3RSVDbe40kthaKSikAUUUUAFFFFMAooooAKKKKQBRRRQAUUUUAFFFFMBDR3/Kg0HqKSA+UXGHYehP8AOljOJYz/ALY/mKWX/Wv/ALx/nSRjM0Y9XUfqK+kfwnEz6M8Xf6i1/wB4/wAhXKvXVeLf9Ta/7zfyFcq9c+B/hI4cb/F+4hNNNPNMNd6OQY1ed+LR/wAVDNj+6n/oIr0Rq878Xf8AIwy/7if+gim9jpwnx/Ixh1r6I+Fox8OtK+kn/ox6+dh1r6J+F3/JO9K+kn/ox68vMf4a9f0PWpfEdZRRRXjm4UUUUwAV8v8AiUY8U6uDwRezf+hmvp+vmbxguzxlrQ/6fZT/AOPmvSy345ehjW2RkKa+jvh4c+AtHP8A07j+Zr5vBxXuHgbxv4esPB2m2l5q0ENxDDteN9wKnJ9ua3zFN01ZdSaOjZ6JSVzn/Cw/Cv8A0HLP/vo/4U0/EXwoP+Y5a/r/AIV4/JPszouu50tFcz/wsfwn/wBBu2/Jv8KP+FkeE/8AoNW/5N/hT9nPsxXXc6aiuaHxF8KHprdt/wCPD+lL/wALD8K/9Bu1/M/4Uezn2Y7rucP8df8AWaGPaf8A9p15L3r0f4ueIdL1+TSTpV7FdeSsok2Z+XOzHYehrzivcwaaoK++pzT1keh/BQ/8Vrcj/qHv/wCjI690rwr4J/8AI63X/Xg//oyOvda8vGfxmbU/hCiig1yFiUUUUAeMfG//AJDmmf8AXs3/AKHXmY616V8bv+Rg00f9Op/9DNeajrX0OC/gROSp8TPRPBH/ACLw/wCu7/0rfNYHgj/kXv8Atu/9K3zXQeNW/iP1GGig0VRmNrjPiCP3mn/7r/zWu0ri/iF/rNP/AN1/5rUz2OjCfxV8zju9e0fAz/kCat/19D/0AV4vXtPwN/5AWqf9fY/9AFcOO/hfce1T+I9QHSijtRXiGwUUUUAFFFFABRRRQAUUUUAFFFFABRRRQAUlLRQAlFFFABRRRQAUUUtABRRRQAtFFFAwpKWkoEFFFFMAooooAKKKKACiiikAUUUUAFFFFABRRRQAUUUUAFFFFABSUtJQAtJS0UwEopaSkAtFFFABRRRQAUUUUALRSUtAHmnxsb/iQacvrdE/+OH/ABrxivZfjd/yBNM/6+W/9BrxmvewH8BerOWr8R6l8Dx/xM9ZP/TKEfq9ewivHvgcP+JhrX/XKH+b17CK8vG/xmb0vhA0lFFcpYUUUUAFFFFABRRRQAUUUUwCiiikAUUUUAFFFFMAooooAKKKKAENHcUppO4oA+U5f9c/+8f50kfEsR9HX+Yoc5kb6n+dIDhlPoR/OvpPsnE9z6O8Xf8AHrbf75/lXKPXV+Lf+PSD2k/9lrk2rmwP8I4cb/F+4jNMIp5pprvRyEbV534u/wCRhl/3E/8AQRXorCvOfF//ACMU3+4n/oIolsdWE+MxRX0T8Lf+SdaV9JP/AEY9fO4HNfRPwu/5J1pX+7J/6MevLzD+GvX9D1aXxHWdqKKK8g3CiiimAlfPnxN0WXSfGl3Iynyb1jcRPjg55YfUNkfl619CVieKPDFl4r0lrO8DIwO6GZR80Teo9R6jv+Rrowtf2M+boROPMj5mpCoNdlqvws8S6dcslvZi+hH3ZoHUZHupIIP5/Ws4+AvE466HefgFP9a91VqTV+ZHPytM5zbSba6L/hBfE3/QDvv++B/jR/wgfib/AKAd7/3yP8aPa0u6CzOd20Yroj4C8Tf9AO9/75H+NH/CBeJv+gHe/wDfK/40va0/5kOzOeCilwK6D/hA/E//AEA73/vkf403/hBfE/8A0A77/v2P8aFVp90KzMIUYroU8AeKJCAuh3mf9oKv6k1uaP8AB7xDfTD+0vJ02AH5izrI5HsFJH5mpniKUVfmQ1Bs0vghpsr6xqWp4IhihFuDjgszBiB9Ao/76Fez1m6Holn4e0mHT9PQrDF3Y5Z2PVie5J5rSrwa1T2s3I6YqyCkoorIYUUUgoA8V+Nv/Iyad/16f+ztXm9ek/G7/kY9OP8A06f+ztXm4r6HBfwInJU+JnoXgj/kAH/r4f8AktdAa5/wQP8Ainz/ANd3/wDZa6A10o8at/EfqNNJSmimZiVxfxC+/p3+7J/7LXaVxXxC/wBdp/8AuP8AzFRPY6MJ/FXzOOr2n4Gf8gPVf+vsf+gCvF+9e0fAz/kBar/19j/0AVxY7+E/kezT+I9QHSigdKK8Q3CiiigAooopgFFFFIAoopKAFoopKAFooooAKKKKAENFLSUAFFLRQAUUUUAFFFFAC0UUUDCkpaQ0CCiiimAUUUUAFFFFIAooooAKKKKACiiigAooooAKKKKACiiigBKKWkoAKWkooAWkpaKACiiigAooooAKKKKAClpKWgDzH42/8gbTP+vh/wD0GvGq9k+N3/IJ0v8A67v/AOgivHK9/L/4HzZy1fjPU/gcP9N1o/8ATOD+clev15D8Dv8Aj71z/cg/nJXr1eXjv4zN6XwoSig0VyFhRRSGmAUUZozSAKWkzRmgBaKTNGaYC0UmaXNABRRRQAUUmaM0ALRSUZoAWiiigApB1paPSgD5RkGJHHoT/OmP90+3NSzjbcSj0dh+tRSf6tvpX0tvdOJ7n0h4t/484f8Arr/7Ka5Jq6zxZxZQn/pr/wCymuUauXA/wjz8b/F+4jNIacaaa7kcww9K848Xf8jHcf7qf+givR2rzjxbz4kufYJ/6AtEtjpwnxv0MYV9F/DHj4d6T/uP/wChtXzqvavov4Z/8k80j/rm3/obV5mYfw16nq0dzqaKWkryDoCiiimAUopKWkAUUUUAGKMUUUAGKKKKACiiigAoopKACiiigAooopgIaKKKAPGPjeP+J9ph/wCnYj/x415oK9M+N/8AyHNL/wCvdv8A0KvMx1r38F/ARyVPiZ6J4I/5F4f9dn/pW+a5/wAEf8i+P+u8n9K6A10nj1v4j9RDSGlpDVGQneuK+IQ/e6ef9h/5iu1ri/iEPn0//dk/9lqJ7HRhP4q+Zx3evZ/gZ/yBdWH/AE8r/wCgCvGK9n+Bn/IF1X/r5X/0AVxY/wDhfcezT+I9RHSiiivENwooooAKKKKACiiigBKKWigBKKWigBKWiigAooooAKKKKACiiigAooooAKKKKAFoooNAwoopKBBRRRQAUUUUAFFFFMAooooAKKKKQBRRRQAUUUUAFFFFABRRRQAUUUUAJS0UUAFFFFABRRRQAUUUUAFFFFABS0lLQB5l8bv+QLpn/Xw3/oNeNCvZPjdxoumf9fDf+g141XvZf/A+Zy1fiPVvgd/x865/uQf+1K9dryL4Hf8AHzrf+5B/7Ur12vMx38d/10NqXwIQ0UppK5DQKSlptMCO4uIbWF5rmaOGFPvPI4VR9SeKxpfG/hqEkPrunkj+7MG/lmvI/izrdxqHi+ewaRvslgFSOPPG4qCzEdzk4z6CuGNehRwHPBSk7XMpVbOyR9Ijx94XPTXLP8XIqT/hOfDH/Qd0/wDGYV808UVr/Zse7J9t5H0x/wAJt4ZP/Me07/wIX/Gj/hNfDQ/5junf+BC/418z0Uf2av5g9t5H0x/wm3hk/wDMe0//AL/rR/wmvhof8x3Tv/Ahf8a+Z6Wj+zV/MHtvI+lj458Mj/mO6f8A9/gaP+E58Mn/AJjth/3+FfNNGBR/Zq7h7byPpX/hOfDI/wCY7Yf9/hQPHHhk9Nd0/wDGYV81YoxT/s1fzB7byPpf/hNvDX/Qe0//AL/rR/wnHhn/AKDun/8Af4V80UlL+zf7we28j6X/AOE48M/9B2w/7/CrFr4p0K+mWG11iwllY4VFuF3E+gHevmCnKSGBUkEHII7Uv7N00kP23kfWdHpXIfDPVbjVvB9vLduZJI2aMOxyWAOBk966/vXmzg4ScX0NU7q58r3w26hcjsJWH/jxqtJxE30q1qI26neD0ncf+PGqkv8Aqn+n9K+j+wvQ43ufSPi3/jwg/wCuv/sprkmrrfFv/HhB/wBdf/ZTXJtXJgP4RwYz+L9xHSUtJXoHKIRXmvi0EeJLnPon/oC16VivOvGULx+I5mYHbIqOp9RtA/mDSZ04N++/Qws19F/DJg3w80nHaNl/EOwr5zr2b4NeJbefSH0KeQJc27tJCpON8bHccepDE5HoR7152PTdNW6M9Wlueo0lLRXjHQFJS0lAC0UlFAC0UlFAC0UlFAC0UlFAC0ZpKKACiiigAoopKYC0UlFAC0lFHr+uaAPGvjeP+JzpZ7/Z2/8AQq8zHWuq+JPiGLxD4tlktXD2tsggicD74BJZvoSTj2xXKCvfwicaKTOSe7PRvBibPDcJ/vySH/x4j+lbpNZ3h+2NroNlE2d3l7iD2LfMf51o10o8aq7zk13EpDSk0lUZid64z4h/e076Sf8AstdnXG/ELrp30k/9kqZbHRhf4q+f5HGCvaPgZ/yBNV/6+h/6AK8Yr2f4Gf8AID1X/r6H/oArix/8L7j2afxHqHaigUV4ZuFFFFABRRRQAUUUUAFFFFABRRRQAUUUUAFFFFABRRRQAUUUUAFFFFABRRRQAtFFFMApKU0lIAooooAKKKKACiiigAoopKAFooopgFFFJSAWiiimAUUUUAFFFFIAooooAKKSigBaSlooAKKKKACiiigAooooAKWkpaAPLvjgf+JVpI9Zn/8AQRXjor2D44/8g7SP+usn8hXkA617+X/wPmzlrfEerfA7/j51v/cg/nJXrleRfA4/6Vrf+5B/7Ur12vLx38dm1L4EBpKWkrkNApMUtFMDy/4i/De81rUzq+iqklxKFE8DsF3EAAMpPHQcg1wrfDHxaP8AmDOf+3iH/wCLr6KoxXXTx1WnFRVmkQ6abufOg+GHi3/oDSf9/wCH/wCLo/4Vl4s76NL+E8R/9nr6MorT+0qvZC9kj5yHwz8WH/mDS/8Af6L/AOLo/wCFZ+LP+gNL/wB/ov8A4uvo2ij+0avZB7JHzh/wrjxUP+YLP/33H/8AFUn/AArrxV/0Bbn/AL6j/wDiq+kKKf8AaVTsg9kj5t/4V74q/wCgJc/mn/xVOHw68VH/AJglz/32g/8AZq+kKKP7SqdkHskfN5+HfikddFuf++oz/wCzUL8O/FLHjRbn8WQfzavpCij+0qnZC9ij5v8A+FceKv8AoC3H/fcf/wAVR/wrrxR/0Bbn/vpP/iq+kKKP7SqdkHsUfOC/DjxSemjXH/fUY/m9XLL4U+J7q6SOayFpET8000sZCj/dViSa+gqKTzKq1ZJIPZIzNA0O38PaPBp9pkxwrjJ6sfU1pZ5FFHcVwNuTuzVJLRHyzqf/ACFr3/r4k/8AQjVOU4if/dNWr9t2oXR9ZnP/AI8aqS/6l/oa+l+wvQ4nufSfiz/jwh/66/8Asprk2rrPFh/4l8H/AF1/9lNcm1cmB/hHBjP4v3DDSUpptd5yC1zvjHSDfWAuYRma3BJAHJTv+XX866GlFBUJODUkeOEU+CaW2njmt5HimjIZHQkMpHQgiuu8R+Ezue702MlTy8CjkH1Uent+Xtx5UgkEEEcEelTKCkrM9WnUU1dHp/h/40XNtCIdeszdFRgTwYV2/wB5TwfqMfStZ/jfpynC6VdkYzkuo4rxxBlh9RSMPu5HUCuN4Ck9TdVWexf8LysP+gPdf9/Vpp+OVn20W4P/AG3X/CvH8UYpfUKQ/as9d/4Xnbf9ASb/AMCB/wDE04fHK0/6Atxn/ruv+FeQYoxR/Z9IPas9f/4Xnaf9AW4/7/r/AIUf8Lzs/wDoC3H/AH/X/CvIMUYo/s6mHtmev/8AC87T/oCXH/f9f8KX/heVn/0Brj/v8v8AhXj+KCKf9nUw9qz2D/hedl/0Brn/AL/L/hS/8LysP+gPdf8Af1a8dxQRS/s+mHtWew/8Lysf+gNc/wDf1f8ACnf8Ly0//oD3f/f1a8cxRto/s+mHtWexf8LzsP8AoD3X/f1aT/heVl/0Brn/AL/L/hXj22jbS/s+mHtWewf8Lzs/+gLcf9/1/wAKd/wvKw/6A91/3+WvHcUpFP8As+kHtWew/wDC8rD/AKA91/39Wg/HGw/6A93/AN/Vrx3FLij+z6Qe1Z64/wAc4P8Allocp/3rkD+SmuU8UfFDWPEVu9rGEsbN+HjiJLOPQse3sMVxhFAB7CqhgqUXe1xOq2hOtamhaW2q6nFDtJjBDynsEH+PT8ai0zR7rVZvLtIi+D8znhV+p/p1r0bRdGh0ay8mP55GO6WTGCx/wHYf411rQ5K9ZQVluaH04pKKKo8sQ0UGimAVxfxB/wBZp/8Auyf+y12lcV8QeZrD/df+a0mb4X+Kvn+Rx9ez/A0/8STVR/09D/0AV4zXsvwM/wCQPq3/AF8r/wCgCuHH/wAL7j2afxHqNFFFeGdAUUUUAFFFFABRRRQAUUUlAC0UUUwCiiigAooooAKKKKQBSUUUAFLSUUALRRRQAtFAooGFJS0lAgooooAKKSloAKSiigApaKKACkpaKAEopaKAEpaKKACiiimAUUUUAFFFFIBKKWkoAWiiigBKKWigAooooAKKKKAAUtAooA8u+OHOl6T/ANd3/wDQRXjor2P43j/iU6U3pO4/8dH+FeOV7+X/AMD5s5avxHqvwOP+m62P+mcH85K9eryD4GnN7rf/AFzg/nJXr9eXjv4zN6XwhSUtIa5CwooooAKWkooAWikooAWiiigAooooAKKKKACiiigApKKKACiiigBKQ9R9aWjHP40wPlKc5nlPq7H9ahkP7p/900+b5ZpAeoYg/nUch/dv9DX0q+FLyOO2p9I+KjnTLU+r5/8AHa5Zq6PX50n0TTZEIKyKHBB6gr/9eubNc2CVqXzZ52M/i/cNNNpxpprtRyhSZpc0maYh4OetVLzR7DUM/arZHb+90b8xzVkGlBpWKTs7ow28E6TuLJ9ojyCMCTIwRjuD61G3gXTW/wCW10P+BJ/8TXRBqM0tTT2tTucz/wAIHp//AD83Q/FP/iaX/hA9P/5+bn/x3/CukzRmjUftp9znB4D0/wD5+br80/8AiaX/AIQPT/8An5uvzT/4muizRmjUXtqnc5z/AIQPTv8An4uvzT/4mk/4QPT/APn6uvzT/wCJrpM0Zo1D28+5zf8Awgen/wDPzdfmn/xNH/CB6f8A8/N1+af/ABNdJmjNGoe3n3Oa/wCEDsO1zdf+Of4Un/CBWP8Az93H5L/hXTZozRqHt59zmf8AhArD/n6ufyX/AApf+ECsO91c/wDjv+FdLuo3Uah7ep3Oc/4QLTv+fm6/NP8A4mk/4QLTv+fm6/NP/ia6TNGaNQ9vU7nNf8IFp/8Az9XX5p/8TR/wgWn/APP1dfmn/wATXS5ozRqHt6nc5weA9NH/AC8XR/4En/xNL/wgmm/897v/AL6T/wCJros0Zo1D28+5zo8DaaP+W13/AN9J/wDE1Yg8IaTAQWgeYg8ea5I/IYFbWaM0WE6tR9RIokhjEcSJHGOiooVR+ApxNJmkzTsZi0hpM0UwA0UUUCCuI+IAH2ix/wB1/wCYrt64n4gH99Yf7r/zWk9jfC/xV8/yOQ717L8DP+QTq/8A18p/6BXjdey/Awf8SjV/+vlf/QK4ce/3X3Hs0viPUaKKK8M6AooooAKKKKYBRRRSAKSlpKACiiigBaSiigAooooAWkpaKAEooooAKKKKAAUtIKWgBaKKKBhSUtJQIKKKKAEooooAWiiigAooooAKKKKACiiigAooooAKKKKACikooAWiiigAooooAKKKKACiiigAooooAKKKKAFopKKAPNfjcm7w5p7/AN282/mjf4V4tmvdPjLA0vgqJ1GRDeI7ew2sv8yK8KNe7l7/AHNvM5qvxHqPwNk/4mmsR/3oYW/Iv/jXsleBfCDUlsfHAgkYhb23eFfdgQw/QN+de+15uOTVZ3NqXwgaKWkrkNBKKWkoEFFLRQAlFLRQAlFLRQAUUUUAFFFFACUUtJigAooooAKKKKAEooopgfLviGzOneJNTtGH+puZFHHbccH8qzCeK9G+MugtZeIItXjU/Z71QrkdBIoxj8VAP4GvOCa+ioVFUpqXkcso2Z6N4J1i51DRjb3Vy8v2RhHGjtnYm0bQPQcEfhXRk15h4S1UaVrGJWxBOPLck8Dng/0/GvTc1pBaHl4uLjUv0YGmmlNIa0RyjSaSg0lMBwNKDTaM0APzRmkzRmlYdxc0ZpM0ZoC4uaM0maM0WELRSZozQAtFJmlzQAUUUZoAKKTNGaAFopM0ZoAWikzRmgBaKM0ZoAKKM0maAFopM0ZoAWikpaACiiigAFcP4/cG+s4+6xFj+Lf/AFq7hVJOBj8TgAV5l4n1FNS1yeWFi0KYjjJ7gcZ/E5P41LZ1YSLdTm7GQBXtXwPjx4d1OTs17tH4Rr/jXiwFfQnwr0s6X4Es2kXbLeFrph/vn5f/ABwLXBmEkqaXdnr0viOypKWkrxTcKKKKACiiigAooooAKKKKACkpaKAEooooAKKKKACiiigAooooAKKKKAFooooAWiiigYUlLRQISiiimAUUUUgCiiigAooooAKKKKACiiigAooooAKKKKACiiigAooooAKKKKACiiigAooooAKKKKACiiigAooooAyvE+kDXfDd/p38U8RCE9nHK/8AjwFfMMiNFI8bgq6EqwIwQRwRX1nXh/xc8JNpusHWrWM/ZLxv3uBxHKeufZuv1zXo5fWUZOD6/mZVY3Vzz+2uZrG7hurZyk8DrJGw7MDkV9LeFPEVt4o0KC/tyAxG2aPvG46g/wBPY18y5re8IeLbvwhqv2i3/e20uBcQE8OM9R6MOxrsxmHdWPMt0RTlZ2Z9L0Vl6F4h0/xHYLd6bOsiEDcp4dD6MOxrUrwmmnZnRuFJS0lABS0lLQAUUUUAFFFFABRRRQAUUUUAFFFFACUUUUAFFFFMAooooAyPE+gQeJfD9zps+F80ZjfGdjjkH8+vsTXzRqWnXWkajNY30ZiuIHKup/mPUHqDX1cK4/x34BtvF1sJoitvqcQxHMRw4/utjt6HqK68HifZS5ZbMicbq6Pnc11vh3xh9liS01IlogMJMOSo9D6j3rB1fRL/AEK/az1K3eCdecEZDD1B6Ee4qgQR2r27cyUos5Z04zXLI9iguIrmESW8iSxkZDKQRTya8dguZ7V91vLJE3qjEfyrQj8UaxEMLfzYH97DfzFHM1ujilgX9l/eeoE0ma83HjDWh/y9g/WJD/Snf8JnrX/PeM/9sE/wp+08jP6lU7o9GzRmvOf+Ey1r/n4j/wC/Kf4Uf8JlrX/PzH/35T/Cj2nkw+pVO6PR80Zrzj/hM9a/5+I/+/Kf4Uf8JlrX/PxH/wB+U/wo9p5D+pVO6PR80Zrzc+MNbP8Ay9J/35T/AApP+Ev1v/n6X/vyn+FL2vkH1KfdHpOaM15r/wAJfrf/AD9L/wB+U/wo/wCEv1v/AJ+k/wC/Kf4Ue08mH1KfdHpWaM15v/wmGt/8/Mf/AH5X/Ck/4S7Wz/y8oP8Atkv+FP2lugfUp90ek5ozXm//AAl+tD/l5T/vytH/AAl+t/8AP0n/AH5Wj2nkH1KfdHpOaM15t/wl+tj/AJeU/wC/K0v/AAl+t/8APzH/AN+Vpe08g+pT7o9IzSZrzj/hL9b/AOfqP/vyv+FH/CX63/z9R/8Aflf8KfP5MPqU+6PR80ZrzgeL9cH/AC8xf9+U/wAKX/hMNb/5+Yv+/K0e08mH1OfdHo2aM15x/wAJhrf/AD8xf9+E/wAKP+Ew1v8A5+Yv+/C/4Ue08g+pz7o9HzRmvOP+Ew1sf8vMR/7YJ/hS/wDCY63/AM/EX/flaPaeQfU590ejZozXnQ8Za0P+W8J/7YrR/wAJlrX/AD2h/wC/K0e08mH1OfdHouaM151/wmetf89of+/K0HxlrR/5bxf9+Vpe08mH1KfdHooNOrzf/hMtaH/LxF/35X/Cj/hM9b/5+UH0hT/Cj2nkH1OfdHpIpJpI7WIy3EiQxjks5wK81bxjrjqV+27Qe6xop/MCsq4up7uQyXM0krnu7FjRzt9Co4J395nU+JPFwuonstNJWBuJJSMFx6D0X+dckOTQOa0dG0a+1zUorHTYDNPJzjoFHdmPYDPX8BzQ2opyb0O2FNQVoo0PBnheTxX4hhstrfZUIkunxwIwemfVjwPxPavpRUVFCqAABgAdBXPeDfCdt4Q0cWsZElzKQ9xPjBkbH6KOgH9Sa6KvBxVf20/JbHXTjyoU0lFFcxYUUUUAFFFFABRRRQAUUUUAFFFFABRRRTAKSlopAJRSmkoAKKKKACgUUtABRRRQAtFFFAwoNFFAhKKKKYBRRRQAUUUlAC0UUlIBaKSigBaKSigBaKKTNAC0UlFAC0UlLQAUUUUAFFFFABRRRQAUUUUAFFFFABRRRQAUUUUwENVdQsLfVLGazvIllt5lKOjdx/j3B7VaNJQm1qgep87+N/Al54SvDIgefTZGxFcY5Un+FsdG9+h/MVylfV9zbQ3lu8FzEksMgKujgFWHoQa8i8Y/CKWAveeGsyxE5Nmx+Zf9xieR7Hn3NezhcdGSUKuj79/UwnTe6PN9P1O90m6Fxp11NbTD+OJyCR6H1Hsa7nSvjTrdmqpqNtbX6jq2PKc/iOP/AB2uAngltJ2guY3hmU4aORSrA/Q1Ga6alCnU1aTJUmj16P46wH/W6FKv+5cg/wA1FTj456b/ABaRej6SIf6141QKweApPYftWe0f8Ly0r/oFah+af40v/C8dI/6BWof+Q/8A4qvF8UYqf7Pp+Y/as9n/AOF5aT/0CtQ/NP8AGj/heelf9AnUPzT/ABrxjFJij+z6fmHtWe1f8Ly0f/oF6j/5D/8AiqP+F5aP/wBAvUfzj/8Aiq8Vop/2fSD2rPav+F46P/0C9R/Dy/8A4qnD446J/wBA3Uh+Ef8A8VXidGB3P6Uv7Pph7Vntn/C8dD/6B2qf98x//F0h+OWi/wDQM1I/hH/8VXilFH9n0/MPas9oPxz0ntpWoH6lB/Wk/wCF56V/0Cb/AP76T/GvF8UtH1Cl5h7VntA+Oek/9ArUB+Kf404fHLRT10zUh9BGf/Zq8Voo/s+l5h7Rntf/AAvHRP8AoG6l+Uf/AMVSH45aN/0DNR/8h/8AxVeK0lH9n0vMPaM9q/4XjpH/AEC9Q/8AHP8A4qgfHHSD/wAwvUPzT/4qvFeKXoOlP6hR8w9oz2wfG/RT107UR9BGf/ZqkHxs8PnrZaoPrHGf/aleHg0uaP7PpeYvaSPY9X+JXgzxHZG01WxvniPILRLlD6ghsg/SvPr/AEXRZpC2ieIbeVWyRBexvC49BvwUP1JWucorWlQdH4JO3YmUubc0J9EuraNnc2jKvXyb2CU/kjk/pVEqBTCB/kUua6oylb3ibC4FHFJRmq512FYWjFJmlzQ2gsxMUYpc0ZpXQCYoxRmii6GAGaQ4HcUoNe5fC+y07WfBcL3thZ3E0Mjwl5IFZiAflBJHOFIH0ArDEYhUY81rocYuTseG04CvptvCHh5+W0PTT/26p/hUbeCfDTddC078LdB/SuL+0oP7Jp7KR80baNtfSZ8BeFz10Kw/78ik/wCFfeFv+gHY/wDfuq/tKn2Yexfc+bdtGK+kv+FfeFv+gFY/9+6T/hX3hb/oB2X/AH7o/tKn2f4C9i+583YoxX0h/wAK88LH/mB2f/fNH/CvPC3/AEA7P/vin/adPsx+xfc+bsUV9Jf8K+8Lf9AOy/790p+H/hb/AKAVj/37o/tOn2YexZ82YoxX0j/wr3wt/wBAOz/74o/4V54V/wCgHZ/98Uf2nT7MPYs+bqK+k/8AhX/hcf8AMCsf+/VH/CAeF/8AoB2P/foUf2nT/lYexZ82Yor6T/4V/wCFv+gHY/8Afuj/AIV/4X/6AVj/AN+6P7Tp/wArD2LPmykxX0p/wr/wv/0ArH/v0KP+EA8L/wDQCsP+/Qo/tOn/ACsPYs+a8UmK+lf+EA8L/wDQCsf+/Qpv/CvfCp/5gdn/AN8Uf2nT/lYexZ824zToIJLqdYbeKSeZj8scSF2P4DmvpOPwH4Yh5XQrA/70Ib+ea17LTrPTovLsbSC2j/uQxqg/IAVnLMo/Zj941S7s8P8ADvwm1vVikuoKNMtjgnzcGVh7IOn/AAI/hXsHhzwvpvhey+z6ZBtLYMkrnMkpHdj/AE6DsK2qSuCtialXST0NIwUdRaKSisSgoopKAFopKWkAUUlFAC0UUUAFFFFABRRRQAUUUUwCiiikAUlLSUAFFFFABS0lLQAUCigUALRRRQMKQ0tIaBBRRSUwCiilpAFJS0UAJQKWigApKWigBKKWkxQAUUUUAFFGKKACloooAKKKKYBRRRQAUUUUgCiiigAooopgFFFFIAooopgIaKKKAFFLSUtAFHUdG0/V4vL1Gyt7pB2mjDY+melcvdfCfwvcK/k2ktozjBaCZumc9GyB+VdrS1UKs4fC2hOKZ5tL8EtGb/V6jqK/Uxn/ANkFVm+Btifu6zdD6xKa9SordYyuvtC9nHseVn4G2vbWrj8YAf60z/hRkP8A0HJf/AYf/FV6tijFP69X/m/BC9lHseVf8KMg/wCg5L/4DD/4qk/4UZD/ANByX/wGH/xVerYpcUfXsR/N+CD2Uex5R/woyL/oOy/+Ao/+KpP+FGR9tdf/AMBf/s69YxSYo+vYj+b8F/kHso9jyX/hRY/6D5/8A/8A7Oj/AIUX/wBR/wDOz/8AtletYoxR9er/AM34IPZR7Hkn/Cij/wBDAP8AwCP/AMco/wCFFeviD8rP/wC2V65ijFH16v8Azfgh+zj2PJR8C07683/gJ/8AZ0v/AAouP/oOv/4C/wD2des4oxR9er/zfgheyj2PJ/8AhRkf/Qdf/wABf/s6T/hRaf8AQef/AMBf/s69ZxRij69X/m/Bf5B7KPY8l/4UWn/Qeb/wE/8As6P+FFJ/0Hm/8BP/ALOvWsUYo+vV/wCb8F/kHso9jyYfAqPvrzn/ALdf/s6X/hRcQ/5jsn/gN/8AZ16vS4o+vV/5vwX+QezieTf8KLj/AOg6/wD4C/8A2dH/AAoqL/oOy/8AgKP/AIqvWMUYo+vV/wCb8EP2cex5R/woqL/oPS/+Ao/+KpP+FFR/9B5//AUf/F16xRij69X/AJvwX+Qezj2PKl+BdsPv65cN/uwKP6mpP+FGWHfWLz/v2tepUUvrtf8Am/BB7OPY8t/4UZYf9Bm7/wC/aUf8KMsf+gzd/wDftK9SopfXK/8AN+CD2cex5b/wo2w/6DF5/wB+1o/4UZY/9Bm8/wC/aV6lRR9dr/zfgg9nHseW/wDCjLH/AKDN3/37SnL8DtO76ve/giD+leoUUfXa/wDN+CD2cex5l/wo/Sv+grf/AJR//E0v/Cj9J/6Cmof+Q/8A4mvTKKX1yt/MHs49jzI/BDSccapqG71/d4/LbXV+DPCieENKmsY7p7lJLgzBnQKRlVGOOv3c5966KionXqVFaTuhqKT0QtJRRWQxaSiigYtFJRQAtJRRQAtFJRQAtFJRQAUUUUAFFFFABS0lFAC0lFFABQaSigQUUUUwCiiigBKKKKQBRRRQAUUUUAFLRRQAUUUUwCiiikAUUUUAFFFFABSUtJQAUUUUAFLSUtABQKKBTAWiiikMKQ0tIaBBRRRTAKKKKACiiigAooopAFFFFABRRRQAUUUUAFFFFABRRRTAKKKKQBRRRTAKKKKQBRRRQAUUUUAFFFFABRRRQAUUUUwCiiigAooopALRSUUALRSUZoAWikzRmgBaKSjNAC0UZooAKKKKACiiigAooooAKKKKACijNGaACiiigAoopM0ALRSZozQAtFJmigBaKSjNAC0UmaXNABRSZooAWkoooAKKKKACjNFFABRRRQAUUUUAFLmkooAXNJRRQAZozRRQAZooooAKM0UUAFFFFABRRRQAUUUUwCiiikAUlLRQAmKKWigBKWiimAUUUUAFFFFIAooooAKKKKACiiigAooooAKKKKACiiigAoFFFAC0UUUDCkNLSUCCiiimAUUUUAFFFFIAooooAKKKKACiiigAooooAKKKKACiiigAooooAKKKKACiiigAooooAKKKKYBRRRSAKKKKACiiimAUUUUAFFFFABRRRSAKKKKACiiigAooooAKKKKACiiigAooooAKKKKACiiigAooooAKKKKACiiigAooooAKKKKACiiigAooooAKKKKACiiigAooooAKKKKACiiigAooooAKKKKACiiigAooooAKKKKACiiigAooooAKKKKACiiigAooopgFFFFABRRRQAUUUUAFFFFABRRRSAKKKKACiiigAooooAKKKKACiiigAooooAKKKBQAtFFFAwpKWkoEFFFFMAooooAKKKKACiiigAooopAFFFFABRRRTAKKKKQBRRRQAUUUUAFFFFABRRRQAUUUUAFFFFABRRRQAUUUUwCiiikAUUUUAFFFFMAooopAFFFFABRRRQAUUUUAFFFFABRRRQAUUUUAFFFFABRRRQAUUUUAFFFFABRRRQAUUUUAFFFFABRRRQAUUUUAFFFFABRRRQAUUUUAFFFFABRRRQAUUUUAFFFFABRRRTAKKKKACiiigAooooAKKKKACiiikAUUUUAFFFFMAooooAKKKKQBRRRQAUUUUwCiiikAUUUUAFFFFABRRRQAUUUUAFFFFABRRRQAUCigUwFoNFFIYUlLSUCCiiimAUUUUAFFFFABRRRSAKKKKACiiigAooooAKKKKACiilxQAlFLSUAFFFFABRRRQAUUUUAFFFFABRRRQAUUUUAFFFFMAooooAKKKKACiiikAUUUUAFFFFABRRRQAUUUUAFFFFABRRRQAUUUUAFFFFABRRRQAUUUUAFFFFABRRRQAUUUUAFFFFABRRRQAUUUUAFFFFABRRRQAUUUUAFFFFABRRRQAUUUUAFFFFMAooooAKKKKACiiikAUUUUwCiiikAUUUUAFFFFMAooooAKKKKQBRRRQAUUUUwCiiikAUUUUAFFFFABRRRTAKKKKQBRRRQAUUlLQAUUUUALRRRTAKSlpKQBRRRTAKKKKACiiikAUUUUAFFFFABRRRQAUUUUAFFFFABRRRQAUUUUAFFFFABRRRQAUUUUAFFFFABRRRQAUUUUwCiikoAWiiigAooopAFFFFABRRRQAUUUUAFFFFABRRRQAUUUUAFFFFABRRRQAUUlLQAUUUUAFFFFABRRRQAUUUUAFFFFABRRRQAUUUUAFFFFABRRRQAUUUUAFFFFABRRRQAUUUUAFFFFABRRRTAKKKKACiiigAooooAKKKKACiiikAUUUUAFFFFABRRRTAKKKKQBRRRQAUUUUAFFFFABRRRQAUUUUAFFFFMAooooAKKKKQBRRRQAUUUUwFooFFAwNJS0lIQUUUUwCiiigAooooAKKKKQBRRRQAUUUUAFFFFABRRRQAUUUUAFFFFABRRRQAUUUUAFFFFMAooooAKKKKACiiigAooooAKKKKACiiikAUUUUAFFFFABRRRQAUUUUAFFFFABRRRQAUUUUAFFFFABSUtFABRRRQAUUUUAFFFFABRRRQAUUUUAFFFFABRRRQAUUUUAFFFFMAooooAKKKKQBRRRQAUUUUAFFFFMAooooAKKKKACiiigAooooAKKKKACiiigAooooAKKKKQBRRRTAKKKKQBRRRQAUUUUAFFFFABRRRQAUUUUAFFFFABRRRQAUlLSUALRSUUALRRRQAtFANFAwpKWkoEFFFFABRRRQAUUUUwCiiikAUUUUwCiiikAUUUUAFFFFABRRRQAUUUUAFFFFABRRRQAUUUUAFFFFABRRRQAUUUUwCiikoAWiiigAooopAFFFFABRRRQAUUUUAFFFFABRRRQAUUUUAFFFFABRRRQAUUUUAFFFFABRRRQAUUUUAFFFFABRRRQAUUUUAFFFFABRRRTAKKKKACiiigAooopAFFFFABRRRQAUUUUAFFFFMAooooAKKKKACiiigAooooAKKKKACiiigAooooAKKKKQBRRRQAUUUUAFFFFMAooopAFFFFABRRRQAUUUUAFFFFABSUtFACUUUtABRRRQBGs0bMAJEJPYMKlNc/af8fcX++K6CgYGkphfGfang5ANAgooooAKKKKACiiigAooooAKKKKACiiimAUUUUgCiiigAooooAKKKKACiiigAooooAKKKKACiiigAooooASilooASilooAKKKKYBRRRSAKKKKACiiigAooooAKKKKACiiigAooooAKKKKACiiigAooooAKKKKACiiigAooooAKKKKACiiigAooooAKKKKACiiigAooooAKKKKACiiigAooooAKKKKACiiigAooooAKKKKACiiigAooooAKKKKYBRRRSAKKKKACiiigAooooAKKKKYBRRRSAKKKKACiiigAooooAKKKKACiiigAooooAKSiigApaSigBaKKKAOK0u5mbVLVWlYgyDIzXbV55o90W1izXaOZV716HQMpPJhmHuan+YEEdCOlZssuJnH+0RWhLLsQADLY/KgCYHNLVa0laYHeBuXIyO/SrOKBBRS4ooASilpMUAFFLiigAooooAKTFLRQAlFLRQAlFLiigBKKWigBKKWigBKKWigBKKWigBKKXFJigAooxRigAooxRQAUUUUAFFFFMAooooAKKKKQBRRRQAUUUUAFFFGKACijFGKACijFFABRRRQAUUUUAFFFFABRRRQAUUUUAFFFFABRRRQAUUUUAFFFFABRRRQAUUUUAFFFFABRRiloASilooASilooASilxSYoAKKMUYoAKKMUYoAKKKKACijFGKACijFGKACilooASilooASijFLQAlFFGKACiiigAoooxQAUUYpcUAJRRijFABRRijFABRS4ooASilooASilxSYoAKKKKYBRRRSASilooASijFFABS0lLQB5doWoW8mvWKK5LNOoHymvUq8V8Nf8AIzaZ/wBfCV7VQMiaCMyeYY1L+uOaa8RkPTA9TU9FAhkcaxLhafRRQAUUUUAFFFFABRRRQAUUUUAFFFFABRRRQAUUUUAFFFFABRRRQAUUUUAFFFFABRRRQAUUUUAFFFFABRRRQAlFLRQAlLRRQAUUUUAFFFFABRRRQAUUUUAFFFFABRRRQAUUUUAFFFFABRRRQAUUUUAJS0UUAFFFFABikpaKAEopaKAEpaKKACkpaKAEpaKKACiiigAooooAKKKKACiiigAooooAKKKKACiiigAooooAKKKKACiiigAooooAKKKKACiiigAooooAKKKKACiiigAooooAKKKKACiiigAooooAKKKKACiiigAooooAKKKKADFJS0UAJRRRQAUUUUAf/9k=" vertex="1" parent="1">
          <mxGeometry x="180" y="80" width="240" height="240" as="geometry" />
        </mxCell>
        <mxCell id="nj3Y115-zf2xpUHcBy3k-11" value="Secure comunication and messaging platforme" style="text;html=1;strokeColor=none;fillColor=none;align=center;verticalAlign=middle;whiteSpace=wrap;rounded=0;fontColor=#FFFFFF;" vertex="1" parent="1">
          <mxGeometry x="490" y="30" width="260" height="50" as="geometry" />
        </mxCell>
        <mxCell id="nj3Y115-zf2xpUHcBy3k-12" value="OR" style="text;html=1;strokeColor=none;fillColor=none;align=center;verticalAlign=middle;whiteSpace=wrap;rounded=0;fontColor=#FF3333;" vertex="1" parent="1">
          <mxGeometry x="730" y="280" width="20" height="30" as="geometry" />
        </mxCell>
        <mxCell id="nj3Y115-zf2xpUHcBy3k-13" value="SIgn up for free" style="text;html=1;strokeColor=none;fillColor=none;align=center;verticalAlign=middle;whiteSpace=wrap;rounded=0;fontColor=#0BE0E0;" vertex="1" parent="1">
          <mxGeometry x="710" y="310" width="60" height="30" as="geometry" />
        </mxCell>
        <mxCell id="nj3Y115-zf2xpUHcBy3k-14" value="" style="rounded=0;whiteSpace=wrap;html=1;fillColor=#000000;" vertex="1" parent="1">
          <mxGeometry y="370" width="850" height="270" as="geometry" />
        </mxCell>
        <mxCell id="nj3Y115-zf2xpUHcBy3k-17" value="" style="edgeStyle=orthogonalEdgeStyle;rounded=0;orthogonalLoop=1;jettySize=auto;html=1;" edge="1" parent="1" source="nj3Y115-zf2xpUHcBy3k-15">
          <mxGeometry relative="1" as="geometry">
            <mxPoint x="490" y="600" as="targetPoint" />
          </mxGeometry>
        </mxCell>
        <mxCell id="nj3Y115-zf2xpUHcBy3k-15" value="" style="rounded=0;whiteSpace=wrap;html=1;" vertex="1" parent="1">
          <mxGeometry x="150" y="400" width="120" height="30" as="geometry" />
        </mxCell>
        <mxCell id="nj3Y115-zf2xpUHcBy3k-22" value="" style="rounded=0;whiteSpace=wrap;html=1;" vertex="1" parent="1">
          <mxGeometry x="150" y="580" width="10" height="30" as="geometry" />
        </mxCell>
        <mxCell id="nj3Y115-zf2xpUHcBy3k-23" value="" style="rounded=0;whiteSpace=wrap;html=1;" vertex="1" parent="1">
          <mxGeometry x="150" y="520" width="120" height="30" as="geometry" />
        </mxCell>
        <mxCell id="nj3Y115-zf2xpUHcBy3k-24" value="" style="rounded=0;whiteSpace=wrap;html=1;" vertex="1" parent="1">
          <mxGeometry x="150" y="460" width="120" height="30" as="geometry" />
        </mxCell>
        <mxCell id="nj3Y115-zf2xpUHcBy3k-26" style="edgeStyle=orthogonalEdgeStyle;rounded=0;orthogonalLoop=1;jettySize=auto;html=1;exitX=0.25;exitY=1;exitDx=0;exitDy=0;" edge="1" parent="1" source="nj3Y115-zf2xpUHcBy3k-22" target="nj3Y115-zf2xpUHcBy3k-22">
          <mxGeometry relative="1" as="geometry" />
        </mxCell>
        <mxCell id="nj3Y115-zf2xpUHcBy3k-28" value="Birthdate" style="text;html=1;strokeColor=none;fillColor=none;align=center;verticalAlign=middle;whiteSpace=wrap;rounded=0;fontColor=#FFFFFF;" vertex="1" parent="1">
          <mxGeometry x="80" y="580" width="60" height="30" as="geometry" />
        </mxCell>
        <mxCell id="nj3Y115-zf2xpUHcBy3k-29" value="Email adress" style="text;html=1;strokeColor=none;fillColor=none;align=center;verticalAlign=middle;whiteSpace=wrap;rounded=0;fontColor=#FFFFFF;" vertex="1" parent="1">
          <mxGeometry x="80" y="520" width="60" height="30" as="geometry" />
        </mxCell>
        <mxCell id="nj3Y115-zf2xpUHcBy3k-30" value="Last name" style="text;html=1;strokeColor=none;fillColor=none;align=center;verticalAlign=middle;whiteSpace=wrap;rounded=0;fontColor=#FFFFFF;" vertex="1" parent="1">
          <mxGeometry x="80" y="460" width="60" height="30" as="geometry" />
        </mxCell>
        <mxCell id="nj3Y115-zf2xpUHcBy3k-31" value="First name" style="text;html=1;strokeColor=none;fillColor=none;align=center;verticalAlign=middle;whiteSpace=wrap;rounded=0;fontColor=#FFFFFF;" vertex="1" parent="1">
          <mxGeometry x="80" y="400" width="60" height="30" as="geometry" />
        </mxCell>
        <mxCell id="nj3Y115-zf2xpUHcBy3k-33" value="" style="rounded=0;whiteSpace=wrap;html=1;" vertex="1" parent="1">
          <mxGeometry x="180" y="580" width="15" height="30" as="geometry" />
        </mxCell>
        <mxCell id="nj3Y115-zf2xpUHcBy3k-34" value="" style="rounded=0;whiteSpace=wrap;html=1;" vertex="1" parent="1">
          <mxGeometry x="220" y="580" width="50" height="30" as="geometry" />
        </mxCell>
        <mxCell id="nj3Y115-zf2xpUHcBy3k-35" value="" style="rounded=0;whiteSpace=wrap;html=1;" vertex="1" parent="1">
          <mxGeometry x="540" y="400" width="120" height="30" as="geometry" />
        </mxCell>
        <mxCell id="nj3Y115-zf2xpUHcBy3k-36" value="" style="rounded=0;whiteSpace=wrap;html=1;" vertex="1" parent="1">
          <mxGeometry x="540" y="520" width="120" height="30" as="geometry" />
        </mxCell>
        <mxCell id="nj3Y115-zf2xpUHcBy3k-37" value="" style="rounded=0;whiteSpace=wrap;html=1;" vertex="1" parent="1">
          <mxGeometry x="540" y="460" width="120" height="30" as="geometry" />
        </mxCell>
        <mxCell id="nj3Y115-zf2xpUHcBy3k-38" value="Gender" style="text;html=1;strokeColor=none;fillColor=none;align=center;verticalAlign=middle;whiteSpace=wrap;rounded=0;fontColor=#FFFFFF;" vertex="1" parent="1">
          <mxGeometry x="470" y="520" width="60" height="30" as="geometry" />
        </mxCell>
        <mxCell id="nj3Y115-zf2xpUHcBy3k-39" value="Confirm Password" style="text;html=1;strokeColor=none;fillColor=none;align=center;verticalAlign=middle;whiteSpace=wrap;rounded=0;fontColor=#FFFFFF;" vertex="1" parent="1">
          <mxGeometry x="470" y="460" width="60" height="30" as="geometry" />
        </mxCell>
        <mxCell id="nj3Y115-zf2xpUHcBy3k-40" value="Password" style="text;html=1;strokeColor=none;fillColor=none;align=center;verticalAlign=middle;whiteSpace=wrap;rounded=0;fontColor=#FFFFFF;" vertex="1" parent="1">
          <mxGeometry x="470" y="400" width="60" height="30" as="geometry" />
        </mxCell>
        <mxCell id="nj3Y115-zf2xpUHcBy3k-41" value="Sign up" style="rounded=1;whiteSpace=wrap;html=1;" vertex="1" parent="1">
          <mxGeometry x="740" y="580" width="50" height="30" as="geometry" />
        </mxCell>
        <mxCell id="nj3Y115-zf2xpUHcBy3k-42" value="Sign up&amp;nbsp; page" style="text;html=1;strokeColor=none;fillColor=none;align=center;verticalAlign=middle;whiteSpace=wrap;rounded=0;fontColor=#FF3333;" vertex="1" parent="1">
          <mxGeometry x="125" y="370" width="60" height="30" as="geometry" />
        </mxCell>
        <mxCell id="nj3Y115-zf2xpUHcBy3k-44" value="Home page" style="text;html=1;strokeColor=none;fillColor=none;align=center;verticalAlign=middle;whiteSpace=wrap;rounded=0;fontColor=#FF3333;" vertex="1" parent="1">
          <mxGeometry x="125" y="10" width="60" height="30" as="geometry" />
        </mxCell>
        <mxCell id="nj3Y115-zf2xpUHcBy3k-45" value="" style="rounded=0;whiteSpace=wrap;html=1;fillColor=#000000;" vertex="1" parent="1">
          <mxGeometry y="670" width="850" height="300" as="geometry" />
        </mxCell>
        <mxCell id="nj3Y115-zf2xpUHcBy3k-46" value="" style="rounded=0;whiteSpace=wrap;html=1;" vertex="1" parent="1">
          <mxGeometry x="170" y="710" width="120" height="30" as="geometry" />
        </mxCell>
        <mxCell id="nj3Y115-zf2xpUHcBy3k-47" value="" style="rounded=0;whiteSpace=wrap;html=1;" vertex="1" parent="1">
          <mxGeometry x="170" y="830" width="120" height="30" as="geometry" />
        </mxCell>
        <mxCell id="nj3Y115-zf2xpUHcBy3k-48" value="" style="rounded=0;whiteSpace=wrap;html=1;" vertex="1" parent="1">
          <mxGeometry x="170" y="770" width="120" height="30" as="geometry" />
        </mxCell>
        <mxCell id="nj3Y115-zf2xpUHcBy3k-49" value="New password&lt;br&gt;" style="text;html=1;strokeColor=none;fillColor=none;align=center;verticalAlign=middle;whiteSpace=wrap;rounded=0;fontColor=#FFFFFF;" vertex="1" parent="1">
          <mxGeometry x="100" y="830" width="60" height="30" as="geometry" />
        </mxCell>
        <mxCell id="nj3Y115-zf2xpUHcBy3k-50" value="Recovery key&amp;nbsp;" style="text;html=1;strokeColor=none;fillColor=none;align=center;verticalAlign=middle;whiteSpace=wrap;rounded=0;fontColor=#FFFFFF;" vertex="1" parent="1">
          <mxGeometry x="100" y="770" width="60" height="30" as="geometry" />
        </mxCell>
        <mxCell id="nj3Y115-zf2xpUHcBy3k-51" value="Email adress" style="text;html=1;strokeColor=none;fillColor=none;align=center;verticalAlign=middle;whiteSpace=wrap;rounded=0;fontColor=#FFFFFF;" vertex="1" parent="1">
          <mxGeometry x="100" y="710" width="60" height="30" as="geometry" />
        </mxCell>
        <mxCell id="nj3Y115-zf2xpUHcBy3k-52" value="" style="rounded=0;whiteSpace=wrap;html=1;" vertex="1" parent="1">
          <mxGeometry x="170" y="890" width="120" height="30" as="geometry" />
        </mxCell>
        <mxCell id="nj3Y115-zf2xpUHcBy3k-53" value="Confirn New password" style="text;html=1;strokeColor=none;fillColor=none;align=center;verticalAlign=middle;whiteSpace=wrap;rounded=0;fontColor=#FFFFFF;" vertex="1" parent="1">
          <mxGeometry x="100" y="890" width="60" height="30" as="geometry" />
        </mxCell>
        <mxCell id="nj3Y115-zf2xpUHcBy3k-54" value="Submit" style="rounded=1;whiteSpace=wrap;html=1;" vertex="1" parent="1">
          <mxGeometry x="485" y="860" width="50" height="30" as="geometry" />
        </mxCell>
        <mxCell id="nj3Y115-zf2xpUHcBy3k-55" value="Password recovery" style="text;html=1;strokeColor=none;fillColor=none;align=center;verticalAlign=middle;whiteSpace=wrap;rounded=0;fontColor=#FF3333;" vertex="1" parent="1">
          <mxGeometry x="135" y="680" width="60" height="30" as="geometry" />
        </mxCell>
        <mxCell id="nj3Y115-zf2xpUHcBy3k-56" value="admin" style="strokeWidth=1;shadow=0;dashed=0;align=center;html=1;shape=mxgraph.mockup.forms.comboBox;strokeColor=#999999;fillColor=#ddeeff;align=left;fillColor2=#aaddff;mainText=;fontColor=#666666;fontSize=17;spacingLeft=3;" vertex="1" parent="1">
          <mxGeometry x="550" y="140" width="85" height="20" as="geometry" />
        </mxCell>
        <mxCell id="nj3Y115-zf2xpUHcBy3k-57" value="" style="rounded=0;whiteSpace=wrap;html=1;fillColor=#000000;" vertex="1" parent="1">
          <mxGeometry y="990" width="850" height="360" as="geometry" />
        </mxCell>
        <mxCell id="nj3Y115-zf2xpUHcBy3k-58" value="Message Received" style="rounded=0;whiteSpace=wrap;html=1;" vertex="1" parent="1">
          <mxGeometry x="485" y="1060" width="150" height="40" as="geometry" />
        </mxCell>
        <mxCell id="nj3Y115-zf2xpUHcBy3k-59" value="Message Send" style="rounded=0;whiteSpace=wrap;html=1;" vertex="1" parent="1">
          <mxGeometry x="680" y="1110" width="150" height="40" as="geometry" />
        </mxCell>
        <mxCell id="nj3Y115-zf2xpUHcBy3k-60" value="Message" style="rounded=1;whiteSpace=wrap;html=1;" vertex="1" parent="1">
          <mxGeometry x="480" y="1290" width="270" height="60" as="geometry" />
        </mxCell>
        <mxCell id="nj3Y115-zf2xpUHcBy3k-62" value="" style="shape=image;html=1;verticalAlign=top;verticalLabelPosition=bottom;labelBackgroundColor=#ffffff;imageAspect=0;aspect=fixed;image=https://cdn2.iconfinder.com/data/icons/bitsies/128/Attach-128.png" vertex="1" parent="1">
          <mxGeometry x="700" y="1300" width="40" height="40" as="geometry" />
        </mxCell>
        <mxCell id="nj3Y115-zf2xpUHcBy3k-67" value="" style="html=1;shadow=0;dashed=0;shape=mxgraph.bootstrap.rrect;rSize=5;fillColor=#ffffff;strokeColor=#999999;" vertex="1" parent="1">
          <mxGeometry x="630" y="1180" width="170" height="110" as="geometry" />
        </mxCell>
        <mxCell id="nj3Y115-zf2xpUHcBy3k-68" value="Share link" style="fillColor=none;strokeColor=none;align=left;spacing=20;fontSize=14;" vertex="1" parent="nj3Y115-zf2xpUHcBy3k-67">
          <mxGeometry width="170" height="30" relative="1" as="geometry">
            <mxPoint y="10" as="offset" />
          </mxGeometry>
        </mxCell>
        <mxCell id="nj3Y115-zf2xpUHcBy3k-69" value="Pic" style="fillColor=#0085FC;strokeColor=none;fontColor=#ffffff;align=left;spacing=20;fontSize=14;sketch=0;" vertex="1" parent="nj3Y115-zf2xpUHcBy3k-67">
          <mxGeometry width="170" height="30" relative="1" as="geometry">
            <mxPoint y="40" as="offset" />
          </mxGeometry>
        </mxCell>
        <mxCell id="nj3Y115-zf2xpUHcBy3k-70" value="Folder" style="fillColor=none;strokeColor=none;align=left;spacing=20;fontSize=14;" vertex="1" parent="nj3Y115-zf2xpUHcBy3k-67">
          <mxGeometry width="170" height="30" relative="1" as="geometry">
            <mxPoint y="70" as="offset" />
          </mxGeometry>
        </mxCell>
        <mxCell id="nj3Y115-zf2xpUHcBy3k-71" value="Send" style="rounded=1;whiteSpace=wrap;html=1;" vertex="1" parent="1">
          <mxGeometry x="770" y="1305" width="50" height="30" as="geometry" />
        </mxCell>
        <mxCell id="nj3Y115-zf2xpUHcBy3k-73" value="User name" style="rounded=0;whiteSpace=wrap;html=1;" vertex="1" parent="1">
          <mxGeometry x="480" y="990" width="370" height="40" as="geometry" />
        </mxCell>
        <mxCell id="nj3Y115-zf2xpUHcBy3k-76" value="" style="endArrow=none;html=1;rounded=0;strokeColor=#FFFFFF;" edge="1" parent="1" target="nj3Y115-zf2xpUHcBy3k-57">
          <mxGeometry width="50" height="50" relative="1" as="geometry">
            <mxPoint x="400" y="1220" as="sourcePoint" />
            <mxPoint x="410" y="1210" as="targetPoint" />
            <Array as="points">
              <mxPoint x="400" y="990" />
              <mxPoint x="400" y="1360" />
            </Array>
          </mxGeometry>
        </mxCell>
        <mxCell id="nj3Y115-zf2xpUHcBy3k-77" value="" style="rounded=1;whiteSpace=wrap;html=1;" vertex="1" parent="1">
          <mxGeometry x="10" y="1000" width="390" height="350" as="geometry" />
        </mxCell>
        <mxCell id="nj3Y115-zf2xpUHcBy3k-78" value="&lt;h1&gt;Users&amp;nbsp;&lt;/h1&gt;&lt;div&gt;AKA friends&lt;/div&gt;&lt;div&gt;&lt;br&gt;&lt;/div&gt;" style="text;html=1;strokeColor=none;fillColor=none;spacing=5;spacingTop=-20;whiteSpace=wrap;overflow=hidden;rounded=0;" vertex="1" parent="1">
          <mxGeometry x="35" y="1000" width="190" height="120" as="geometry" />
        </mxCell>
        <mxCell id="nj3Y115-zf2xpUHcBy3k-79" value="Chat section" style="text;html=1;strokeColor=none;fillColor=none;align=center;verticalAlign=middle;whiteSpace=wrap;rounded=0;fontColor=#FF3333;" vertex="1" parent="1">
          <mxGeometry x="400" y="995" width="60" height="30" as="geometry" />
        </mxCell>
      </root>
    </mxGraphModel>
  </diagram>
</mxfile>
